<svg width="24" height="20" viewBox="0 0 24 20" fill="none" xmlns="http://www.w3.org/2000/svg">
<g opacity="0.4">
<g clip-path="url(#clip0)">
<path d="M20.6243 2.78432C19.3883 3.21626 18.3805 3.61641 17.352 3.90624C14.3902 4.76076 12.3034 6.61192 10.959 9.35687C10.4392 10.4208 9.94178 11.5016 9.33595 12.5151C7.84006 15.0263 5.48404 16.2286 2.65495 16.5259C2.25667 16.567 1.66579 16.223 1.40214 15.8752C0.0277974 14.054 -0.0619558 12.0326 0.721515 9.94588C2.65682 4.78694 9.37148 0.0618075 14.8876 -0.0148567C17.1295 -0.0204663 19.0723 0.630244 20.6243 2.78432Z" fill="#C1C1C1"/>
<path d="M3.46826 18.1059C4.64814 17.7618 5.60177 17.5038 6.54418 17.2084C9.02174 16.4343 10.7888 14.8336 11.5292 12.3561C12.9802 7.50568 16.7125 5.47688 21.1758 4.33066C21.5236 4.2409 22.2435 4.65976 22.423 5.02438C23.3187 6.83253 23.1317 8.71174 22.4473 10.5442C20.4728 15.8247 14.3508 20.0412 8.71695 19.9982C6.83961 19.987 5.05764 19.613 3.46826 18.1059Z" fill="#C1C1C1"/>
</g>
</g>
<defs>
<clipPath id="clip0">
<rect width="22.8029" height="20" fill="white" transform="translate(0.226074)"/>
</clipPath>
</defs>
</svg>
