<svg width="23" height="20" viewBox="0 0 23 20" fill="none" xmlns="http://www.w3.org/2000/svg">
<g clip-path="url(#clip0)">
<path d="M20.3982 2.78432C19.1622 3.21626 18.1544 3.61641 17.126 3.90624C14.1641 4.76076 12.0773 6.61192 10.7329 9.35687C10.2131 10.4208 9.71571 11.5016 9.10987 12.5151C7.61399 15.0263 5.25797 16.2286 2.42887 16.5259C2.03059 16.567 1.43972 16.223 1.17607 15.8752C-0.198277 14.054 -0.28803 12.0326 0.495441 9.94588C2.43074 4.78694 9.1454 0.0618075 14.6615 -0.0148567C16.9034 -0.0204663 18.8462 0.630244 20.3982 2.78432Z" fill="#8D6600"/>
<path d="M3.24219 18.1059C4.42207 17.7618 5.37569 17.5038 6.3181 17.2084C8.79567 16.4343 10.5627 14.8336 11.3031 12.3561C12.7542 7.50568 16.4864 5.47688 20.9497 4.33066C21.2975 4.2409 22.0174 4.65976 22.1969 5.02438C23.0926 6.83253 22.9056 8.71174 22.2212 10.5442C20.2467 15.8247 14.1248 20.0412 8.49088 19.9982C6.61354 19.987 4.83157 19.613 3.24219 18.1059Z" fill="#8D6600"/>
</g>
<defs>
<clipPath id="clip0">
<rect width="22.8029" height="20" fill="white"/>
</clipPath>
</defs>
</svg>
