<svg width="24" height="24" viewBox="0 0 24 24" fill="none" xmlns="http://www.w3.org/2000/svg">
<path d="M19.2891 3H18.6804L17.8207 0.246826C17.7748 0.0999756 17.6389 0 17.4851 0H6.46802C6.31421 0 6.17816 0.0999756 6.13239 0.246826L5.27271 3H4.66406C4.36688 3 4.125 3.24188 4.125 3.53906V5.50781C4.125 5.80499 4.36688 6.04688 4.66406 6.04688H5.04437L5.24323 8.37524C5.12769 8.39557 5.02039 8.45343 4.93982 8.54059C4.8382 8.651 4.78674 8.79987 4.79865 8.94965L4.90356 10.2493C4.91913 10.4429 5.0885 10.5866 5.28223 10.5714C5.47577 10.5558 5.61987 10.3863 5.60431 10.1927L5.51385 9.07031H18.4393L17.6418 18.9609C17.2106 18.9609 16.8842 18.9609 16.4687 18.9609C16.2744 18.9609 16.1171 19.1184 16.1171 19.3125C16.1171 19.5068 16.2744 19.6641 16.4687 19.6641H17.0391L16.7289 23.2969H7.22424L6.91388 19.6641H16.4687C16.6628 19.6641 16.7143 19.2857 16.7143 19.2857C16.7143 19.2857 16.6628 18.9609 16.4687 18.9609C17.9764 18.9609 6.81189 18.9609 6.31128 18.9609L5.72479 11.6869C5.70923 11.4933 5.54041 11.3492 5.34613 11.3646C5.15259 11.3802 5.0083 11.5497 5.02405 11.7433L5.62262 19.1684C5.64496 19.4464 5.88116 19.6641 6.15985 19.6641H6.20837L6.55115 23.6785C6.56671 23.8603 6.71887 24 6.90143 24H17.0517C17.2343 24 17.3864 23.8603 17.402 23.6785L17.7449 19.6641H17.7933C18.0721 19.6641 18.3082 19.4464 18.3307 19.1684L19.1545 8.94965C19.1664 8.80005 19.1149 8.651 19.0133 8.54059C18.9327 8.45343 18.8254 8.39557 18.7099 8.37524L18.9088 6.04688H19.2891C19.5862 6.04688 19.8281 5.80499 19.8281 5.50781V3.53906C19.8281 3.24188 19.5862 3 19.2891 3ZM18.0049 8.36719H5.94818L5.75006 6.04688H18.2031L18.0049 8.36719ZM19.125 5.34375H4.82812V3.70312H14.9766C15.1708 3.70312 15.3281 3.54584 15.3281 3.35156C15.3281 3.15729 15.1708 3 14.9766 3H6.00934L6.72656 0.703125H17.2266L17.9438 3H15C14.8057 3 14.6484 3.15729 14.6484 3.35156C14.6484 3.54584 14.8057 3.70312 15 3.70312H19.125V5.34375Z" fill="#C9AC60"/>
<path d="M17.4287 11.8374C17.4287 11.6431 17.2714 11.4858 17.0771 11.4858H6.87598C6.68188 11.4858 6.52441 11.6431 6.52441 11.8374C6.52441 12.0317 6.68188 12.189 6.87598 12.189H17.0771C17.2712 12.189 17.4287 12.0317 17.4287 11.8374Z" fill="#8D6600"/>
<path d="M17.1495 13.8191C17.1495 13.6248 16.9922 13.4675 16.798 13.4675H7.15527C6.961 13.4675 6.80371 13.6248 6.80371 13.8191C6.80371 14.0132 6.961 14.1707 7.15527 14.1707H16.7982C16.9922 14.1707 17.1495 14.0132 17.1495 13.8191Z" fill="#8D6600"/>
<path d="M7.43408 15.4492C7.23981 15.4492 7.08252 15.6065 7.08252 15.8008C7.08252 15.9951 7.23981 16.1523 7.43408 16.1523H16.5187C16.713 16.1523 16.8702 15.9951 16.8702 15.8008C16.8702 15.6065 16.713 15.4492 16.5187 15.4492H7.43408Z" fill="#8D6600"/>
</svg>
