<svg width="16" height="17" viewBox="0 0 16 17" fill="none" xmlns="http://www.w3.org/2000/svg">
<path fill-rule="evenodd" clip-rule="evenodd" d="M2.66675 3.83333C2.3016 3.83333 2.00008 4.13486 2.00008 4.5V12.5C2.00008 12.8651 2.3016 13.1667 2.66675 13.1667H13.3334C13.6986 13.1667 14.0001 12.8651 14.0001 12.5V4.5C14.0001 4.13486 13.6986 3.83333 13.3334 3.83333H2.66675ZM0.666748 4.5C0.666748 3.39848 1.56522 2.5 2.66675 2.5H13.3334C14.4349 2.5 15.3334 3.39848 15.3334 4.5V12.5C15.3334 13.6015 14.4349 14.5 13.3334 14.5H2.66675C1.56522 14.5 0.666748 13.6015 0.666748 12.5V4.5Z" fill="white"/>
<path fill-rule="evenodd" clip-rule="evenodd" d="M0.787073 4.11767C0.998216 3.81603 1.4139 3.74268 1.71554 3.95382L7.99989 8.35287L14.2843 3.95382C14.5859 3.74268 15.0016 3.81603 15.2127 4.11767C15.4239 4.4193 15.3505 4.83499 15.0489 5.04613L8.3822 9.7128C8.15266 9.87348 7.84713 9.87348 7.61759 9.7128L0.95092 5.04613C0.649287 4.83499 0.57593 4.4193 0.787073 4.11767Z" fill="white"/>
</svg>
