<svg width="40" height="40" viewBox="0 0 40 40" fill="none" xmlns="http://www.w3.org/2000/svg">
<path d="M16.2113 10.561C16.248 10.5243 16.1605 10.2477 16.1803 10.1913C16.2001 10.1349 16.3017 9.95987 16.3017 9.95987C16.3017 9.95987 16.4004 10.0558 16.4823 10.0756C16.5613 10.0953 16.6827 10.1292 16.7589 10.1772C16.7617 10.259 16.7137 10.4538 16.6911 10.5497C16.6685 10.6457 16.7589 10.5017 16.8548 10.5243C16.9508 10.5469 16.8774 10.7303 16.9508 10.767C17.0242 10.8037 17.3431 10.8094 17.4277 10.7868C17.5152 10.7642 17.3318 10.6146 17.2415 10.5554C17.1794 10.513 17.1116 10.18 17.0862 9.98245C17.0721 9.88931 16.9705 9.8752 16.9254 9.88367C16.852 9.89778 16.5161 9.59298 16.5161 9.59298C16.5472 9.53935 16.6347 9.31357 16.6601 9.19786C16.6855 9.08214 16.5077 8.9749 16.3355 9.01723C16.3581 8.92128 16.5585 8.40762 16.6911 8.41327C16.6911 8.41327 16.7137 8.52051 16.6855 8.63623C16.6601 8.75194 16.7758 8.83378 16.8435 8.89023C16.9113 8.94668 16.9959 8.85072 17.0693 8.80556C17.1427 8.76041 17.1483 8.6588 17.1653 8.57978C17.1822 8.50358 17.3798 8.34271 17.4136 8.28909C17.4447 8.23546 17.6535 8.22135 17.7438 8.17902C17.8229 8.14515 17.7946 8.09999 17.8031 8.01533C18.8615 7.71334 18.1898 7.1884 17.8511 7.00213C17.9583 6.5675 17.6309 6.27116 17.3995 6.14698C17.3064 6.09618 17.2612 6.12441 17.3459 6.18367C17.5858 6.35019 17.789 6.84691 17.3261 7.22509C17.2753 7.21662 17.2302 7.20534 17.2132 7.1884C17.1653 7.1376 17.2274 7.00495 17.1991 6.94286C17.1709 6.88077 17.027 6.71991 17.0016 6.77635C16.948 6.89489 16.9451 7.03318 17.0129 7.22227C16.8181 7.32669 16.6544 7.53836 16.5387 7.58916C16.1239 7.76132 15.5904 7.5553 15.5199 7.46781C15.4522 7.38314 15.5171 7.6823 15.6384 7.75568C15.5538 7.78672 15.4155 7.77543 15.3167 7.71899C15.2518 7.6823 15.3139 7.7839 15.3759 7.85446C15.1276 7.87139 15.0486 7.97581 14.8454 8.04919C14.6676 8.08588 14.4248 8.06331 14.3543 8.04355C14.2894 8.02379 14.3656 8.1508 14.4502 8.22982C14.3543 8.30884 14.2978 8.3794 14.2753 8.4048C14.1906 8.50922 13.7644 9.39542 13.7644 9.39542L13.4596 10.0756C13.4596 10.0756 13.406 10.18 13.2875 10.1744C12.9121 10.1574 12.6384 9.73127 12.7908 9.52242C12.8416 9.45468 12.6694 9.5196 12.6158 9.56757C12.5621 9.61555 12.4718 9.71715 12.5367 9.84698C12.5029 9.87238 12.3759 9.84698 12.2997 9.82722C12.2348 9.81029 12.3251 10.0502 12.6242 10.0615C12.5875 10.1292 12.5057 10.1574 12.4408 10.1772C12.3872 10.1941 12.5791 10.2985 12.7879 10.1941C12.7851 10.276 12.7569 10.3183 12.7061 10.355C12.6638 10.386 12.8585 10.4312 13.0024 10.3014C12.9827 10.3945 12.8952 10.4481 12.9347 10.4763C12.9742 10.5046 13.0984 10.482 13.1972 10.3973C13.2169 10.434 13.0984 10.5892 13.0843 10.6626C13.0702 10.736 13.1012 10.9251 13.121 11.0069C13.1407 11.0888 13.31 11.7492 13.31 11.7492C13.31 11.7492 13.2338 12.1838 13.1774 12.3475C13.121 12.5112 13.121 12.7313 13.0363 12.8301C13.0024 12.8696 13.1972 12.7878 13.1689 13.0164C13.1576 13.118 12.9855 14.2638 12.8077 14.6138C12.7766 14.6731 12.7654 14.7295 12.7456 14.7634C12.7258 14.7972 12.7428 14.8311 12.7738 14.8565C12.8444 14.9158 12.6892 15.1585 12.6948 15.2347C12.7033 15.3589 12.7682 15.7088 12.85 15.7004C12.9319 15.6919 12.9686 15.5282 12.9686 15.5282C12.9686 15.5282 13.0419 15.7173 13.1012 15.706C13.1633 15.6947 13.248 15.4435 13.104 15.15C13.0758 15.0964 13.3496 13.9731 13.3496 13.9731L13.5161 13.595L13.8547 12.7737C13.8547 12.7737 14.1229 12.6495 14.1511 12.4265C14.1596 12.3673 14.4559 12.5253 14.4559 12.5253L14.343 12.8075C14.343 12.8075 14.0608 12.9741 14.0438 13.0333C14.0269 13.0926 14.0467 13.1462 14.089 13.2393C14.1313 13.3325 14.137 13.849 14.0551 14.0747C14.0269 14.1509 14.1624 14.0719 14.1821 14.1001C14.2499 14.1876 14.058 14.4191 14.0918 14.484C14.1229 14.5489 14.4361 14.7634 14.5349 14.7831C14.676 14.8113 14.501 14.34 14.501 14.34C14.501 14.34 14.5857 14.103 14.5772 14.038C14.566 13.9618 14.4559 13.8602 14.4502 13.7728C14.4446 13.7022 14.3938 13.2563 14.422 13.1998C14.4502 13.1434 14.7833 12.9995 14.9272 12.9571C15.0711 12.9148 15.2941 12.6072 15.4691 12.3955C15.5425 12.308 15.5566 12.1866 15.5058 12.0935C15.4409 11.9721 15.2828 11.6363 15.1332 11.3654C15.2631 11.3456 15.486 11.1847 15.3901 11.1565C15.3167 11.1368 15.2264 11.086 15.2405 11.0239C15.4268 11.0521 15.63 10.8884 15.5735 10.8884C15.4522 10.8856 15.2377 10.8178 15.2433 10.64C15.2518 10.2957 15.5509 9.75102 15.5904 9.73127C15.6554 9.70022 15.9206 9.73691 16.0025 9.73691C16.042 9.73691 15.9122 9.89214 15.7993 9.93729C15.8529 9.98527 15.9037 10.0248 15.8811 10.0615C15.8557 10.1095 15.7936 10.1546 15.7767 10.1715C15.7203 10.2393 15.8924 10.5638 15.9489 10.5667C15.9771 10.5695 16.0307 10.4509 16.0307 10.4509C16.0307 10.4509 16.1634 10.609 16.2113 10.561ZM17.837 7.07269C18.0712 7.23638 18.2998 7.56376 17.7382 7.69641C17.7043 7.60892 17.662 7.51861 17.6253 7.43958C17.7297 7.30694 17.7975 7.18558 17.837 7.07269Z" fill="white"/>
<path d="M27.6893 9.83579C27.6131 9.85555 27.4861 9.87813 27.4523 9.85555C27.5172 9.72573 27.4269 9.6213 27.3732 9.57615C27.3196 9.52535 27.1475 9.46043 27.1983 9.53099C27.3478 9.73702 27.0769 10.166 26.7015 10.1829C26.583 10.1829 26.5294 10.0785 26.5294 10.0785L26.2246 9.39834C26.2246 9.39834 25.7984 8.50933 25.7137 8.40773C25.694 8.38233 25.6375 8.31177 25.5388 8.23275C25.6234 8.15655 25.6996 8.02954 25.6347 8.04648C25.5642 8.06623 25.3214 8.08881 25.1436 8.05212C24.9376 7.97874 24.8586 7.8715 24.6131 7.85739C24.6723 7.78683 24.7344 7.68523 24.6723 7.72192C24.5735 7.77836 24.4353 7.78965 24.3506 7.75861C24.4748 7.68523 24.5397 7.38607 24.4691 7.47073C24.3986 7.55822 23.8652 7.76425 23.4503 7.59209C23.3317 7.54411 23.1709 7.32962 22.9761 7.2252C23.0439 7.03893 23.0439 6.89781 22.9874 6.77928C22.962 6.72566 22.8181 6.88653 22.7899 6.94579C22.7616 7.00788 22.8237 7.14053 22.7758 7.19133C22.7588 7.21109 22.7137 7.22238 22.6629 7.22802C22.2 6.84984 22.4032 6.35312 22.6431 6.1866C22.7278 6.12734 22.6826 6.09911 22.5895 6.14991C22.3581 6.27409 22.0307 6.57325 22.1379 7.00506C21.7993 7.19133 21.1276 7.71627 22.1859 8.01825C22.1944 8.10292 22.169 8.14808 22.2452 8.18195C22.3355 8.22146 22.5415 8.23839 22.5754 8.29201C22.6064 8.34564 22.8068 8.50368 22.8237 8.58271C22.8407 8.65891 22.8491 8.76333 22.9197 8.80849C22.9903 8.85365 23.0749 8.9496 23.1427 8.89316C23.2104 8.83671 23.3261 8.75487 23.3007 8.63915C23.2753 8.52344 23.2951 8.41619 23.2951 8.41619C23.4277 8.41055 23.6309 8.92138 23.6507 9.02016C23.4813 8.97782 23.3007 9.08507 23.3261 9.20078C23.3515 9.3165 23.439 9.54228 23.47 9.5959C23.47 9.5959 23.1342 9.90071 23.0608 9.88659C23.0157 9.87813 22.9141 9.89224 22.8999 9.98537C22.8717 10.1801 22.8068 10.516 22.7447 10.5583C22.6572 10.6176 22.4738 10.7671 22.5584 10.7897C22.6459 10.8123 22.962 10.8067 23.0354 10.77C23.1088 10.7333 23.0354 10.5498 23.1314 10.5272C23.2273 10.5047 23.3176 10.6514 23.2951 10.5526C23.2725 10.4567 23.2245 10.262 23.2273 10.1801C23.3035 10.1321 23.4249 10.0983 23.5039 10.0785C23.5829 10.0588 23.6845 9.9628 23.6845 9.9628C23.6845 9.9628 23.7861 10.1378 23.8059 10.1942C23.8256 10.2507 23.7382 10.5272 23.7748 10.5639C23.8228 10.6147 23.9385 10.4708 23.9385 10.4708C23.9385 10.4708 23.9922 10.5893 24.0204 10.5865C24.074 10.5837 24.2462 10.2591 24.1925 10.1914C24.1756 10.1716 24.1163 10.1265 24.0881 10.0813C24.0655 10.0418 24.1163 10.0051 24.17 9.95715C24.0571 9.912 23.9272 9.75677 23.9668 9.75677C24.0486 9.75959 24.3139 9.72008 24.3788 9.75113C24.4211 9.77088 24.7175 10.3156 24.7259 10.6599C24.7316 10.8377 24.5143 10.9026 24.3957 10.9083C24.3393 10.9111 24.5425 11.0748 24.7288 11.0437C24.7429 11.1058 24.6497 11.1566 24.5792 11.1764C24.4832 11.2046 24.709 11.3655 24.836 11.3852C24.6864 11.659 24.5284 11.992 24.4635 12.1134C24.4127 12.2065 24.4296 12.3279 24.5002 12.4153C24.6751 12.627 24.8981 12.9375 25.042 12.977C25.186 13.0193 25.5218 13.1632 25.5472 13.2197C25.5754 13.2761 25.5246 13.7221 25.519 13.7926C25.5134 13.8801 25.4033 13.9817 25.392 14.0579C25.3835 14.1228 25.4682 14.3599 25.4682 14.3599C25.4682 14.3599 25.2932 14.8312 25.4343 14.803C25.5331 14.7832 25.8464 14.5659 25.8774 14.5038C25.9085 14.4389 25.7166 14.2103 25.7871 14.12C25.8097 14.0918 25.9423 14.1708 25.9141 14.0946C25.8323 13.8688 25.8379 13.3523 25.8803 13.2592C25.9226 13.1661 25.9395 13.1124 25.9254 13.0532C25.9085 12.9939 25.6263 12.8274 25.6263 12.8274L25.5134 12.5452C25.5134 12.5452 25.8097 12.3871 25.8182 12.4464C25.8464 12.6693 26.1145 12.7935 26.1145 12.7935L26.4532 13.6148L26.6197 13.993C26.6197 13.993 26.8934 15.1163 26.8652 15.1699C26.7213 15.4634 26.806 15.7118 26.868 15.7259C26.9301 15.7372 27.0007 15.5481 27.0007 15.5481C27.0007 15.5481 27.0402 15.7089 27.1192 15.7202C27.2011 15.7315 27.266 15.3787 27.2745 15.2545C27.2801 15.1755 27.1249 14.9328 27.1954 14.8764C27.2265 14.851 27.2462 14.8171 27.2237 14.7832C27.2039 14.7494 27.1926 14.6929 27.1616 14.6336C26.9866 14.2809 26.8144 13.1378 26.8003 13.0362C26.7721 12.8076 26.9668 12.8895 26.933 12.85C26.8483 12.7512 26.8483 12.5311 26.7918 12.3674C26.7354 12.2037 26.6592 11.769 26.6592 11.769C26.6592 11.769 26.8285 11.1058 26.8483 11.0268C26.868 10.9449 26.8991 10.7559 26.885 10.6825C26.8709 10.6091 26.7523 10.4539 26.7721 10.4172C26.868 10.5018 26.995 10.5244 27.0346 10.4962C27.0741 10.468 26.9866 10.4172 26.9668 10.3212C27.1108 10.451 27.3055 10.4059 27.2632 10.3748C27.2124 10.3382 27.1841 10.2958 27.1813 10.214C27.3902 10.3156 27.5821 10.214 27.5285 10.197C27.4664 10.1773 27.3817 10.1462 27.345 10.0813C27.6639 10.0559 27.7542 9.81886 27.6893 9.83579ZM22.1605 7.0728C22.1972 7.18569 22.2678 7.30704 22.3722 7.43969C22.3355 7.51871 22.296 7.60903 22.2593 7.69652C21.6977 7.56387 21.9263 7.23649 22.1605 7.0728Z" fill="white"/>
<path d="M19.6205 14.8594C19.6544 14.7578 19.55 14.6279 19.3863 14.5743C19.2226 14.5207 19.0617 14.5574 19.0279 14.6618C18.994 14.7634 19.0984 14.8932 19.2621 14.9469C19.4258 15.0005 19.5867 14.961 19.6205 14.8594Z" fill="white"/>
<path d="M19.5444 15.0088C19.4061 15.0483 19.3158 15.1527 19.3412 15.2402C19.3666 15.3277 19.4992 15.3644 19.6375 15.3221C19.7758 15.2826 19.8661 15.1781 19.8407 15.0907C19.8153 15.0032 19.6827 14.9665 19.5444 15.0088Z" fill="white"/>
<path d="M19.7984 14.6279C19.8689 14.5714 19.8576 14.4359 19.7673 14.323C19.6798 14.2102 19.55 14.1622 19.4794 14.2158C19.4089 14.2722 19.4202 14.4077 19.5105 14.5206C19.598 14.6363 19.7278 14.6843 19.7984 14.6279Z" fill="white"/>
<path d="M23.5321 11.5969C23.3627 11.5743 23.1172 11.563 22.8688 11.6364C22.6656 11.5461 22.4003 11.6025 22.2762 11.6844C21.9855 11.6844 21.7371 11.7493 21.6045 11.9356C21.2432 11.9694 21.0203 12.2291 20.9582 12.4577C20.4727 12.6863 20.2413 13.1407 20.1623 13.9309C20.1256 13.9845 20.0889 14.0523 20.0607 14.1285C20.0579 13.9478 20.055 13.7926 20.055 13.7051C20.055 13.5781 20.072 13.4539 20.0833 13.3382C20.1115 13.2846 20.1453 13.2084 20.1651 13.1294C20.2074 12.9488 20.2413 12.7371 20.2582 12.6298C20.2752 12.5226 20.3288 12.3956 20.4219 12.3307C20.5122 12.2686 20.6788 12.2093 20.7324 12.1557C20.8424 12.0456 20.7719 11.9976 20.8622 11.9017C20.9412 11.817 21.0457 11.8142 21.1219 11.7352C21.1924 11.659 21.1755 11.5207 21.2206 11.4445C21.2686 11.3598 21.3533 11.3034 21.3871 11.2328C21.421 11.1651 21.3815 11.0776 21.4182 10.9534C21.4464 10.8575 21.4605 10.7474 21.3928 10.5696C21.3928 10.5696 21.3279 10.7333 21.1981 10.7897C21.009 10.8744 20.6534 11.0663 20.4643 11.2554C20.2159 11.5038 20.0183 11.8904 20.182 12.421C20.182 12.5508 20.1341 12.8387 20.1058 12.9431C20.0974 12.9742 20.0889 13.0024 20.0804 13.0278C20.0663 12.9657 20.0409 12.9121 19.9986 12.8697C19.9986 12.8669 19.9986 12.8641 19.9958 12.8641C19.9958 12.8641 19.9958 12.8669 19.9929 12.8669C19.9929 12.8669 19.9929 12.8641 19.9901 12.8641C19.9901 12.8669 19.9901 12.8697 19.9873 12.8697C19.945 12.9149 19.9196 12.9685 19.9055 13.0278C19.897 13.0024 19.8885 12.9742 19.8801 12.9431C19.8518 12.8359 19.8039 12.548 19.8039 12.421C19.9675 11.8904 19.77 11.5038 19.5216 11.2554C19.3325 11.0663 18.9769 10.8744 18.7878 10.7897C18.658 10.7304 18.5931 10.5696 18.5931 10.5696C18.5254 10.7474 18.5395 10.8575 18.5677 10.9534C18.6044 11.0804 18.5649 11.1651 18.5987 11.2328C18.6326 11.3034 18.7173 11.357 18.7653 11.4445C18.8076 11.5207 18.7907 11.659 18.864 11.7352C18.9402 11.8142 19.0447 11.817 19.1237 11.9017C19.2168 11.9976 19.1434 12.0456 19.2535 12.1557C19.3071 12.2093 19.4765 12.2714 19.564 12.3307C19.6571 12.3956 19.7135 12.5226 19.7277 12.6298C19.7446 12.7371 19.7785 12.9488 19.8208 13.1294C19.8405 13.2112 19.8744 13.2846 19.9026 13.3382C19.9139 13.4539 19.9309 13.5781 19.9309 13.7051C19.9309 13.7926 19.928 13.9478 19.9252 14.1285C19.897 14.0523 19.8603 13.9845 19.8236 13.9309C19.7446 13.1407 19.5132 12.6863 19.0277 12.4577C18.9656 12.2291 18.7455 11.9694 18.3814 11.9356C18.2488 11.7493 18.0004 11.6844 17.7097 11.6844C17.5855 11.6025 17.3203 11.5461 17.1171 11.6364C16.8687 11.563 16.6232 11.5715 16.4538 11.5969C16.245 11.6251 16.0615 11.3824 16.0615 11.3824C16.1067 11.7916 16.1913 12.0033 16.3183 12.1557C16.4849 12.3561 16.4538 12.5565 16.6288 12.7004C16.7502 12.7992 16.9872 12.723 17.1425 12.8443C17.2836 12.9544 17.3146 13.2394 17.5122 13.3298C17.7182 13.4229 17.8762 13.3185 18.0936 13.4144C18.3476 13.5273 18.2121 13.7136 18.5141 13.8378C18.658 13.897 18.9289 13.7277 19.1265 13.8293C19.3241 13.9309 19.372 14.0692 19.6571 14.0269C19.8547 14.1031 19.8744 14.3176 19.9196 14.453C19.9111 14.8143 19.9026 15.2828 19.9026 15.4239C19.9365 15.4239 19.9675 15.4239 19.9929 15.4239C20.0183 15.4239 20.0494 15.4239 20.0833 15.4239C20.0833 15.2828 20.0748 14.8143 20.0663 14.453C20.1115 14.3176 20.1284 14.1031 20.3288 14.0269C20.6138 14.0692 20.6618 13.9309 20.8594 13.8293C21.0569 13.7277 21.3251 13.897 21.4718 13.8378C21.7738 13.7136 21.6383 13.5273 21.8923 13.4144C22.1096 13.3185 22.2677 13.4201 22.4737 13.3298C22.6713 13.2423 22.7023 12.9544 22.8434 12.8443C23.0015 12.723 23.2386 12.7992 23.3571 12.7004C23.5321 12.5565 23.501 12.3561 23.6675 12.1557C23.7945 12.0033 23.8792 11.7916 23.9244 11.3824C23.9272 11.3824 23.7437 11.6251 23.5321 11.5969ZM21.3674 10.7954C21.3025 11.4642 20.2554 11.8424 20.2611 12.3815C20.1312 11.7098 21.119 11.3683 21.3674 10.7954ZM19.7333 12.3787C19.7418 11.8396 18.6947 11.4614 18.627 10.7925C18.8753 11.3683 19.8631 11.7098 19.7333 12.3787ZM16.2563 11.738C16.3833 11.9864 16.6316 12.1642 16.9392 12.3137C16.9929 12.088 16.8348 11.9243 16.6852 11.8029C16.8856 11.8876 17.0973 12.0174 17.055 12.3645C17.182 12.421 17.3174 12.4718 17.4585 12.5198C17.5291 12.3137 17.5037 12.1162 17.2328 11.8735C17.5912 12.0287 17.673 12.3448 17.6053 12.5706C17.7492 12.6185 17.896 12.6637 18.0428 12.7089C18.1359 12.4549 18.0625 12.1698 17.8396 11.913C18.2262 12.1359 18.2629 12.4887 18.181 12.7512C18.3504 12.8048 18.5169 12.8613 18.6749 12.9234C18.7765 12.6298 18.6806 12.4238 18.4746 12.1613C18.864 12.3674 18.881 12.7343 18.8076 12.977C18.9713 13.0447 19.1209 13.1209 19.2507 13.2056C19.3015 13.0673 19.2846 12.8613 19.0955 12.6411C19.4031 12.8189 19.4398 13.1096 19.3664 13.2902C19.5837 13.4624 19.7248 13.6797 19.7389 13.9648C19.5498 12.898 16.6062 12.9967 16.2563 11.738ZM20.2554 13.9676C20.2695 13.6825 20.4106 13.4652 20.628 13.2931C20.5546 13.1124 20.5913 12.8246 20.8989 12.6439C20.707 12.8641 20.69 13.0701 20.7437 13.2084C20.8735 13.1209 21.0231 13.0475 21.1868 12.9798C21.1134 12.7343 21.1303 12.3702 21.5198 12.1642C21.3166 12.4266 21.2178 12.6327 21.3194 12.9262C21.4775 12.8641 21.644 12.8105 21.8133 12.754C21.7343 12.4915 21.7682 12.1388 22.1548 11.9158C21.9318 12.1726 21.8585 12.4549 21.9516 12.7117C22.0984 12.6665 22.2451 12.6185 22.3891 12.5734C22.3185 12.3476 22.4003 12.0315 22.7616 11.8763C22.4878 12.119 22.4624 12.3194 22.5358 12.5226C22.6769 12.4746 22.8124 12.4238 22.9394 12.3674C22.8971 12.0202 23.1087 11.8876 23.3091 11.8057C23.1624 11.9243 23.0043 12.0908 23.0551 12.3166C23.3627 12.1698 23.6083 11.9892 23.7381 11.7408C23.391 12.9967 20.4445 12.898 20.2554 13.9676Z" fill="white"/>
<path d="M20.6112 14.5716C20.4475 14.6252 20.3431 14.755 20.377 14.8566C20.4108 14.9582 20.5717 14.9977 20.7354 14.9441C20.8991 14.8905 21.0035 14.7607 20.9697 14.6591C20.9358 14.5575 20.7749 14.5179 20.6112 14.5716Z" fill="white"/>
<path d="M20.4505 15.0091C20.3122 14.9695 20.1796 15.0062 20.1542 15.0909C20.1288 15.1784 20.2191 15.28 20.3574 15.3223C20.4957 15.3618 20.6283 15.3251 20.6537 15.2405C20.6791 15.153 20.5888 15.0486 20.4505 15.0091Z" fill="white"/>
<path d="M20.4871 14.5235C20.5746 14.4106 20.5887 14.2724 20.5182 14.2187C20.4476 14.1623 20.3178 14.2103 20.2303 14.326C20.1428 14.4389 20.1287 14.5772 20.1992 14.6308C20.2698 14.6844 20.3996 14.6364 20.4871 14.5235Z" fill="white"/>
<path d="M11.5318 27.6836H10.7811C9.38689 27.6836 7.82617 26.4814 7.82617 24.8698V16.8574H9.32762V24.9517C9.32762 25.4004 9.62396 25.8774 10.084 26.0693V16.8574H11.529V27.6836H11.5318Z" fill="white"/>
<path d="M14.4498 27.6132H12.9483V20.518H12.4375V19.1661H14.4526V27.6132H14.4498ZM14.4498 18.311H12.9483V16.8914H14.4498V18.311Z" fill="white"/>
<path d="M17.6022 27.7542C16.5862 27.7542 15.7593 26.9273 15.7593 25.9113V18.7004C15.7593 17.6843 16.7047 16.8574 17.7828 16.8574H19.3492V20.4869H17.9635V18.2375H17.7066C17.478 18.2375 17.2635 18.3956 17.2635 18.6524V25.9903C17.2635 26.1399 17.4555 26.3318 17.605 26.3318C17.7772 26.3318 17.9635 26.1314 17.9635 25.9903V24.5284H19.4649V25.9084C19.4621 26.9273 18.6267 27.7542 17.6022 27.7542Z" fill="white"/>
<path d="M23.9582 27.6131H22.4567V23.8538H21.7568V27.6131H20.2554V18.5592C20.2554 17.5319 21.0823 16.6965 22.0983 16.6965C23.1087 16.6965 23.961 17.5489 23.961 18.5592V27.6131H23.9582ZM21.7427 22.4455H22.4709V18.4746C22.4709 18.3109 22.2761 18.1331 22.0983 18.1331C21.9459 18.1331 21.7427 18.3024 21.7427 18.4746V22.4455Z" fill="white"/>
<path d="M26.6113 27.6131H25.1099V16.8574H28.0761V18.277H26.6141V21.1078H28.0055V22.5471H26.6141V27.6131H26.6113Z" fill="white"/>
<path d="M31.9791 27.6131H29.0835V16.8574C29.0835 16.8574 31.6038 16.8574 32.4194 16.8574C32.4194 17.388 31.8126 18.277 30.5878 18.277C30.5878 19.3213 30.5878 21.1078 30.5878 21.1078H31.8747V22.5471H30.5878V26.1963H31.9791V27.6131Z" fill="white"/>
<path d="M16.0076 34.855C15.9427 34.8353 15.875 34.8183 15.8073 34.7986V34.7958C14.4582 34.4232 13.1825 33.8785 12 33.1871C11.8363 33.0798 11.6755 32.9839 11.5202 32.8964C9.58133 31.6687 7.92466 30.0374 6.66875 28.1211C6.65182 28.0929 6.63771 28.0647 6.61795 28.0364C6.50224 27.8389 6.38935 27.6611 6.27645 27.4946C4.87097 25.1182 4.0638 22.3496 4.0638 19.3918C4.0638 18.0033 4.24442 16.6542 4.61696 15.3814C4.82581 14.673 4.77501 13.5977 4.50407 13.0107C4.2924 12.5563 4.00735 12.2995 3.75899 11.9608C3.46548 11.56 3.23405 10.9956 3.16632 10.5835C3.10987 10.2364 2.86433 10.3211 2.74298 10.5779C2.44099 11.2157 2.26601 12.0906 2.40148 12.7228C2.66113 13.9251 3.46548 14.9806 3.5445 15.8047C3.53603 15.8358 3.52757 15.8696 3.52192 15.9007C3.23687 15.4661 2.83611 15.2121 2.49462 14.9073C2.10514 14.5601 1.74954 14.0295 1.59149 13.6203C1.45884 13.276 1.2246 13.4143 1.15404 13.705C0.987525 14.419 0.993169 15.356 1.26975 15.9741C1.7834 17.1256 2.85869 18.0908 3.16067 18.9854C3.16067 19.0221 3.15785 19.056 3.15785 19.0927C2.75709 18.6891 2.29988 18.4577 1.87372 18.2008C1.40522 17.9186 0.931079 17.4416 0.688364 17.0494C0.482339 16.722 0.270669 16.9111 0.256557 17.2215C0.219868 17.9976 0.411782 18.9628 0.818189 19.5471C1.56609 20.6223 2.88691 21.4098 3.40056 22.2677C3.40621 22.3072 3.41468 22.3439 3.42314 22.3834C2.91513 22.0278 2.38173 21.8811 1.87654 21.6976C1.33466 21.5029 0.750454 21.1078 0.420249 20.755C0.140844 20.4615 -0.0397809 20.7014 0.00819762 21.0259C0.129555 21.8331 0.52185 22.7898 1.0609 23.3091C2.05434 24.2687 3.64892 24.8501 4.35731 25.6573C4.37707 25.7052 4.39682 25.7504 4.41658 25.7984C3.80697 25.5359 3.21994 25.4992 2.65266 25.4202C2.05434 25.3383 1.36853 25.0589 0.950835 24.7683C0.600874 24.5227 0.465405 24.8078 0.586763 25.1323C0.885923 25.9367 1.50118 26.8313 2.16723 27.2462C3.44854 28.0477 5.33382 28.3441 6.22283 29.0891C6.23977 29.1117 6.25388 29.1343 6.27081 29.1569C5.55113 29.0073 4.91894 29.1145 4.29805 29.1682C3.66586 29.2246 2.8982 29.1004 2.4043 28.9C1.98943 28.7335 1.91887 29.0553 2.11643 29.3573C2.61315 30.108 3.45136 30.8813 4.23031 31.1494C5.74587 31.6743 7.8541 31.5389 8.95196 32.1174C8.16173 32.1315 7.53236 32.4025 6.90018 32.617C6.26799 32.8286 5.45518 32.8907 4.90201 32.8089C4.43634 32.7412 4.4448 33.0855 4.72139 33.3451C5.41284 33.9914 6.45708 34.5728 7.31787 34.6546C9.20033 34.8381 11.6359 33.9886 12.7987 34.649C11.8504 34.7817 10.984 35.0498 10.3603 35.3687C9.73656 35.6848 8.87576 35.8428 8.29155 35.8993C7.80048 35.9444 7.89361 36.2125 8.24075 36.4073C9.10719 36.8927 10.4026 37.3584 12.3387 37.2173C14.5655 37.0536 18.2654 35.1119 19.8995 38.6764C19.7415 36.4383 18.2485 35.5578 16.0076 34.855ZM3.53886 14.0126C3.50217 13.8348 3.52757 13.5808 3.59812 13.3776C3.62352 13.3014 3.71384 13.2816 3.7477 13.3917C3.78157 13.4989 3.87188 13.6909 3.91986 13.7755C4.04122 13.9816 4.20209 14.1989 4.25007 14.4867C4.30369 14.7944 4.14847 15.2092 4.013 15.6044C4.08638 15.0145 3.62352 14.4134 3.53886 14.0126ZM2.6696 17.1707C2.57928 16.9647 2.52848 16.6514 2.53977 16.3918C2.54259 16.2958 2.64984 16.2676 2.69782 16.3805C2.75426 16.5075 2.91513 16.7191 2.99416 16.8123C3.18043 17.0381 3.41185 17.2695 3.55014 17.6053C3.6969 17.9694 3.66303 18.4972 3.64046 18.9995C3.53885 18.2742 2.87844 17.642 2.6696 17.1707ZM2.36479 20.4389C2.15594 20.1708 1.91041 19.7333 1.88501 19.389C1.87372 19.2507 1.97532 19.2338 2.07692 19.389C2.19263 19.564 2.38737 19.7079 2.51719 19.8293C2.83329 20.1284 3.16632 20.326 3.44854 20.7973C3.66303 21.1586 3.79004 21.5001 3.90857 22.4004C3.41468 21.2969 2.83893 21.0457 2.36479 20.4389ZM2.69217 23.8143C2.37608 23.5603 2.03741 23.2329 1.87654 22.866C1.79469 22.6798 1.86243 22.6149 2.03741 22.7503C2.23497 22.8999 2.58211 23.0438 2.7712 23.1398C3.19454 23.3543 3.57837 23.5152 4.013 24.0034C4.34602 24.3788 4.55205 24.8953 4.89072 25.773C4.04686 24.6046 3.3667 24.3562 2.69217 23.8143ZM3.65739 27.376C3.14938 27.1333 2.70064 26.7692 2.44664 26.4108C2.34504 26.2669 2.43253 26.1681 2.64702 26.2895C2.88973 26.4277 3.24816 26.5322 3.47394 26.5971C4.01017 26.7495 4.51254 26.8539 5.13061 27.2406C5.62169 27.5482 6.17203 28.2537 6.65464 28.9537C5.44671 27.8981 4.59438 27.8248 3.65739 27.376ZM5.84465 31.0026C5.25762 30.8785 4.70163 30.616 4.34602 30.3084C4.20209 30.1842 4.26982 30.06 4.521 30.1306C4.80605 30.2124 5.20682 30.2293 5.45517 30.2378C6.05067 30.2604 6.59537 30.2406 7.33198 30.4833C7.91619 30.6781 8.66692 31.2679 9.34426 31.8747C7.8287 31.0901 6.92558 31.2312 5.84465 31.0026ZM8.92092 34.1579C8.28873 34.1833 7.6509 34.0592 7.2078 33.8362C7.03 33.7459 7.06387 33.6019 7.34045 33.6076C7.65372 33.6161 8.06577 33.5286 8.3226 33.4749C8.93503 33.3423 9.48819 33.1814 10.3038 33.2407C10.953 33.2859 11.873 33.6979 12.7225 34.141C10.9699 33.7289 10.0837 34.11 8.92092 34.1579ZM13.1233 36.5145C12.5221 36.6641 11.9012 36.7488 11.4271 36.6472C11.238 36.6048 11.2352 36.4609 11.4948 36.3847C12.2822 36.1589 13.1374 35.4816 14.8787 35.3151C15.8496 35.2219 17.5317 35.6312 18.2316 36.4553C16.6455 35.5183 14.2719 36.2295 13.1233 36.5145Z" fill="white"/>
<path d="M20.0972 38.6792C21.7313 35.1147 25.4284 37.0592 27.658 37.2201C29.5969 37.3612 30.8895 36.8955 31.756 36.4101C32.1031 36.2154 32.1991 35.9501 31.7052 35.9021C31.1209 35.8456 30.2602 35.6876 29.6364 35.3715C29.0127 35.0554 28.1463 34.7845 27.198 34.6518C28.3608 33.9914 30.7992 34.8409 32.6788 34.6575C33.5396 34.5728 34.5839 33.9914 35.2753 33.3479C35.5519 33.0883 35.5604 32.7412 35.0947 32.8117C34.5415 32.8936 33.7287 32.8315 33.0965 32.6198C32.4643 32.4081 31.835 32.1372 31.0447 32.1203C32.1426 31.5389 34.2508 31.6743 35.7664 31.1522C36.5453 30.8841 37.3836 30.1108 37.8803 29.3601C38.0807 29.0581 38.0101 28.7364 37.5924 28.9029C37.0985 29.1033 36.3309 29.2246 35.6987 29.171C35.0778 29.1145 34.4456 29.0101 33.7259 29.1597C33.7428 29.1371 33.7569 29.1145 33.7739 29.092C34.6629 28.3469 36.5482 28.0505 37.8295 27.249C38.4955 26.8341 39.108 25.9395 39.41 25.1351C39.5313 24.8134 39.3958 24.5284 39.0459 24.7711C38.631 25.0618 37.9424 25.3412 37.3441 25.423C36.7768 25.502 36.1897 25.5359 35.5801 25.8012C35.5999 25.7532 35.6196 25.7081 35.6394 25.6601C36.3478 24.8529 37.9452 24.2715 38.9358 23.312C39.472 22.7927 39.8672 21.8387 39.9885 21.0287C40.0365 20.7042 39.8559 20.4671 39.5765 20.7635C39.2463 21.1162 38.6621 21.5114 38.1202 21.7061C37.615 21.8895 37.0844 22.0363 36.5736 22.3919C36.5792 22.3524 36.5905 22.3157 36.5961 22.2762C37.1098 21.4182 38.4306 20.6308 39.1785 19.5555C39.5849 18.9713 39.7768 18.0061 39.7402 17.23C39.726 16.9167 39.5116 16.7276 39.3083 17.0578C39.0656 17.4473 38.5915 17.9271 38.123 18.2093C37.6968 18.4661 37.2396 18.6976 36.8389 19.1011C36.8389 19.0645 36.8389 19.0306 36.836 18.9939C37.138 18.0992 38.2133 17.134 38.727 15.9825C39.0035 15.3616 39.0092 14.4246 38.837 13.705C38.7665 13.4143 38.535 13.276 38.3996 13.6203C38.2415 14.0295 37.8859 14.5601 37.4965 14.9073C37.155 15.2121 36.757 15.4689 36.4691 15.9007C36.4607 15.8696 36.4522 15.8358 36.4466 15.8047C36.5256 14.9778 37.3299 13.9251 37.5896 12.7228C37.7251 12.0906 37.5501 11.2157 37.2481 10.5779C37.1267 10.3211 36.8812 10.2364 36.8248 10.5835C36.757 10.9956 36.5284 11.56 36.2321 11.9608C35.9809 12.2995 35.6958 12.5563 35.487 13.0107C35.2132 13.5977 35.1653 14.673 35.3741 15.3814C35.7466 16.6571 35.9273 18.0033 35.9273 19.3918C35.9273 22.3467 35.1201 25.1154 33.7146 27.4946C33.6017 27.6611 33.4888 27.8417 33.3731 28.0364C33.3562 28.0675 33.3393 28.0929 33.3223 28.1211C32.0664 30.0374 30.4069 31.6687 28.4708 32.8964C28.3156 32.9839 28.1576 33.0798 27.9911 33.1871C26.8085 33.8785 25.5329 34.426 24.1838 34.7958V34.7986C24.1161 34.8155 24.0512 34.8324 23.9834 34.855C21.751 35.5578 20.258 36.4383 20.0972 38.6792ZM35.9865 15.6015C35.8511 15.2064 35.6958 14.7944 35.7495 14.4839C35.7974 14.196 35.9583 13.9787 36.0797 13.7727C36.1305 13.688 36.2208 13.4933 36.2518 13.3889C36.2857 13.2788 36.376 13.2986 36.4014 13.3748C36.472 13.578 36.4974 13.8348 36.4607 14.0098C36.3788 14.4134 35.916 15.0145 35.9865 15.6015ZM36.3591 18.9995C36.3365 18.4972 36.3026 17.9666 36.4494 17.6053C36.5877 17.2667 36.8163 17.0352 37.0054 16.8123C37.0816 16.7191 37.2453 16.5075 37.3017 16.3805C37.3525 16.2676 37.4569 16.2958 37.4598 16.3918C37.4711 16.6514 37.4202 16.9647 37.3271 17.1707C37.1211 17.642 36.4635 18.2742 36.3591 18.9995ZM36.091 22.4032C36.2095 21.5029 36.3365 21.1614 36.551 20.8001C36.8332 20.3288 37.1662 20.1284 37.4823 19.8321C37.6122 19.7107 37.8069 19.5668 37.9226 19.3918C38.0242 19.2366 38.1258 19.2535 38.1145 19.3918C38.0891 19.7333 37.8436 20.1736 37.6347 20.4417C37.1606 21.0457 36.5849 21.2969 36.091 22.4032ZM35.1088 25.773C35.4475 24.8953 35.6535 24.3788 35.9865 24.0034C36.424 23.5152 36.805 23.3515 37.2283 23.1398C37.4174 23.0438 37.7674 22.9027 37.9621 22.7503C38.1371 22.6177 38.2048 22.6798 38.123 22.866C37.9621 23.2329 37.6235 23.5603 37.3074 23.8143C36.6357 24.3562 35.9527 24.6046 35.1088 25.773ZM33.3449 28.9508C33.8275 28.2509 34.3807 27.5454 34.8689 27.2377C35.487 26.8511 35.9894 26.7467 36.5256 26.5943C36.7514 26.5293 37.1098 26.4249 37.3525 26.2866C37.567 26.1653 37.6545 26.2641 37.5529 26.408C37.2961 26.7664 36.8473 27.1305 36.3421 27.3732C35.408 27.8248 34.5528 27.8981 33.3449 28.9508ZM30.6553 31.8775C31.3326 31.2708 32.0833 30.6809 32.6676 30.4862C33.4042 30.2434 33.9489 30.2604 34.5444 30.2406C34.7927 30.2322 35.1935 30.2124 35.4785 30.1334C35.7297 30.0628 35.7974 30.187 35.6535 30.3112C35.2979 30.6188 34.7419 30.8841 34.1549 31.0055C33.074 31.2312 32.1737 31.0901 30.6553 31.8775ZM27.2742 34.1382C28.1237 33.6951 29.0438 33.2858 29.6929 33.2379C30.5085 33.1814 31.0617 33.3423 31.6741 33.4721C31.9309 33.5286 32.343 33.6132 32.6563 33.6048C32.9328 33.5963 32.9667 33.7431 32.7889 33.8334C32.3458 34.0563 31.708 34.1805 31.0758 34.1551C29.9158 34.1099 29.0296 33.7289 27.2742 34.1382ZM21.768 36.4553C22.4679 35.6312 24.1499 35.2219 25.1208 35.3151C26.8593 35.4816 27.7173 36.1589 28.5047 36.3847C28.7644 36.4581 28.7644 36.6048 28.5724 36.6472C28.0983 36.7516 27.4774 36.6641 26.8763 36.5145C25.7276 36.2295 23.3541 35.5183 21.768 36.4553Z" fill="white"/>
<path d="M6.45716 9.98532C6.25113 9.98532 6.05357 9.91476 5.87295 9.77365C5.6641 9.61278 5.53992 9.39546 5.50605 9.12735C5.47218 8.85923 5.53992 8.61652 5.70361 8.40202C5.8673 8.19035 6.08462 8.06335 6.35273 8.02948C6.62085 7.9928 6.86638 8.05771 7.07805 8.2214C7.29255 8.38509 7.41673 8.60523 7.44777 8.87052C7.47882 9.13864 7.41108 9.38417 7.24457 9.60149C7.09781 9.7934 6.89743 9.91758 6.64625 9.96838C6.58416 9.97685 6.51925 9.98532 6.45716 9.98532ZM6.46845 8.39356C6.44304 8.39356 6.41482 8.39638 6.38942 8.3992C6.22573 8.41896 6.09591 8.49516 5.9943 8.62781C5.8927 8.76327 5.85319 8.90721 5.87577 9.0709C5.89835 9.23459 5.97455 9.36442 6.11002 9.46884C6.22573 9.55633 6.34427 9.60149 6.47409 9.60149C6.50513 9.60149 6.53336 9.59867 6.5644 9.59302C6.72809 9.56762 6.8551 9.49706 6.95105 9.37288C7.05548 9.23742 7.09499 9.09348 7.07241 8.92697C7.04983 8.76327 6.97081 8.63063 6.83534 8.5262C6.72245 8.43589 6.60109 8.39356 6.46845 8.39356Z" fill="white"/>
<path d="M9.33333 7.30392L8.33989 6.15808L8.03227 6.42337L7.78955 6.14397L8.6955 5.35938L8.93821 5.63878L8.63341 5.90407L9.62685 7.04991L9.33333 7.30392Z" fill="white"/>
<path d="M14.0351 4.39157L13.355 2.63048L13.7162 2.49219L14.3964 4.25328L14.0351 4.39157Z" fill="white"/>
<path d="M15.7962 3.82419C15.6918 3.82702 15.593 3.80162 15.4999 3.75364C15.3559 3.67461 15.26 3.55608 15.2176 3.39803C15.1668 3.20894 15.2148 3.02549 15.3616 2.85333L15.4293 2.77431C15.3051 2.684 15.2261 2.5824 15.1951 2.46668C15.1612 2.33686 15.1753 2.2155 15.2402 2.10825C15.3051 2.00101 15.4067 1.93045 15.5422 1.89376C15.672 1.85707 15.7962 1.86836 15.9034 1.92481C16.0135 1.98125 16.0869 2.07439 16.1208 2.19574C16.1433 2.28041 16.1405 2.3679 16.1095 2.44975C16.0869 2.51466 16.0389 2.59651 15.9712 2.68964L16.2703 2.90131C16.2844 2.87309 16.2986 2.84769 16.3098 2.81947C16.3296 2.77713 16.3494 2.7348 16.3663 2.69529L16.3917 2.63037L16.7106 2.82229L16.6937 2.87027C16.6796 2.90696 16.6626 2.94929 16.6372 3.00009C16.6203 3.03678 16.6005 3.07629 16.5751 3.12427L17.0577 3.47423L16.5892 3.60123L16.3917 3.46012C16.276 3.64357 16.1349 3.75928 15.9655 3.80444C15.9091 3.8129 15.8526 3.82137 15.7962 3.82419ZM15.7313 2.98598C15.6635 3.06783 15.6156 3.13274 15.5958 3.17789C15.5761 3.21741 15.5704 3.25692 15.5817 3.29078C15.5958 3.34723 15.6325 3.38956 15.6918 3.42625C15.7313 3.44883 15.7736 3.46012 15.8131 3.46012C15.8301 3.46012 15.847 3.4573 15.8611 3.45448C15.9345 3.43472 16.0107 3.36416 16.0869 3.23998L15.7313 2.98598ZM15.672 2.19574C15.6579 2.19574 15.6438 2.19857 15.6269 2.20139C15.5902 2.21268 15.5648 2.22961 15.5478 2.25783C15.5309 2.28323 15.5281 2.30581 15.5337 2.33404C15.545 2.37355 15.5732 2.41024 15.6184 2.4441L15.6805 2.48644C15.7031 2.45822 15.72 2.43281 15.7341 2.41024C15.7567 2.37919 15.7651 2.36226 15.768 2.35097C15.7793 2.32557 15.7793 2.30017 15.7736 2.27195C15.7651 2.2409 15.7482 2.21832 15.7228 2.20703C15.7087 2.19857 15.6918 2.19574 15.672 2.19574Z" fill="white"/>
<path d="M17.8256 3.38399L17.6309 1.50718L18.7203 1.39429L18.7598 1.764L18.0542 1.83738L18.0852 2.13937L18.7569 2.06316L18.7936 2.43288L18.1219 2.50908L18.1699 2.97758L18.8585 2.90138L18.8952 3.27109L17.8256 3.38399Z" fill="white"/>
<path d="M10.1377 6.62101L9.03418 5.09134L9.9232 4.45068L10.1405 4.75267L9.56477 5.16754L9.74257 5.4159L10.2873 5.01514L10.5046 5.31712L9.95989 5.71788L10.2365 6.09889L10.7953 5.68966L11.0126 5.99164L10.1377 6.62101Z" fill="white"/>
<path d="M12.6834 4.99555L11.8818 3.28525L12.8725 2.81958L13.0305 3.15543L12.3898 3.45741L12.5197 3.73399L13.1293 3.4433L13.2873 3.77915L12.6777 4.06984L12.8781 4.49601L13.5046 4.19685L13.6627 4.5327L12.6834 4.99555Z" fill="white"/>
<path d="M19.8518 3.2767C19.6909 3.28235 19.5498 3.23719 19.4369 3.14406C19.324 3.0481 19.2167 2.88159 19.2026 2.6812L19.5893 2.60783C19.5893 2.71225 19.6457 2.80538 19.6598 2.82232C19.705 2.88159 19.7699 2.90699 19.8518 2.90416C19.9251 2.90134 19.9788 2.87594 20.0183 2.83078C20.0606 2.78563 20.0775 2.72918 20.0747 2.65863C20.0719 2.6304 20.0691 2.605 20.0606 2.58525C20.0521 2.56549 20.0408 2.54574 20.0239 2.5288C20.007 2.50905 19.9844 2.49211 19.9562 2.47518C19.9251 2.45825 19.8913 2.44131 19.8489 2.42438L19.6711 2.36229C19.4002 2.26351 19.2563 2.10264 19.245 1.87968C19.2365 1.7301 19.2901 1.60028 19.3974 1.49303C19.5046 1.38861 19.6429 1.32934 19.8066 1.32087H19.8179C20.0973 1.3124 20.3174 1.4761 20.3852 1.67083L20.0719 1.8317C20.0408 1.7301 19.9562 1.69341 19.832 1.69341C19.7671 1.69341 19.7191 1.71599 19.6824 1.74986C19.6486 1.7809 19.6344 1.81759 19.6344 1.86275C19.6373 1.92201 19.6909 1.96999 19.7981 2.00668L19.9788 2.06877C20.134 2.1224 20.2525 2.19295 20.3287 2.28326C20.4077 2.37358 20.4529 2.48647 20.4585 2.62194C20.467 2.79974 20.4134 2.95214 20.3005 3.07632C20.1876 3.2005 20.038 3.26824 19.863 3.2767H19.8518Z" fill="white"/>
<path d="M8.48085 8.16207C8.37078 8.28061 8.24096 8.34834 8.0942 8.36245C7.94744 8.37657 7.75271 8.33141 7.60031 8.20159L7.82044 7.87702C7.89382 7.95323 8.00107 7.9758 8.02365 7.97863C8.09702 7.98709 8.15911 7.96169 8.21556 7.8996C8.26354 7.84598 8.28329 7.79236 8.28047 7.73027C8.27765 7.66818 8.24943 7.61455 8.19863 7.5694C8.17887 7.54964 8.15629 7.53553 8.13371 7.52706C8.11396 7.5186 8.09138 7.51295 8.06598 7.51295C8.04058 7.51295 8.01236 7.51578 7.98131 7.52424C7.94744 7.53271 7.91075 7.54682 7.86842 7.56658L7.70191 7.6456C7.44226 7.76696 7.22494 7.75285 7.06125 7.60609C6.95118 7.50449 6.89474 7.37748 6.89756 7.22508C6.89756 7.0755 6.95683 6.93721 7.0669 6.81303L7.07536 6.80456C7.26728 6.59854 7.53822 6.55903 7.72449 6.65216L7.61442 6.98519C7.51846 6.93721 7.43379 6.96826 7.3463 7.05857C7.30115 7.10655 7.28139 7.15453 7.28139 7.2025C7.27857 7.25048 7.2955 7.28435 7.32937 7.31539C7.37452 7.35491 7.4479 7.35208 7.54668 7.3041L7.71884 7.22226C7.8656 7.1517 8.00107 7.11784 8.11678 7.1263C8.23532 7.13477 8.34821 7.18275 8.44699 7.27306C8.57963 7.3916 8.65019 7.53835 8.65583 7.70487C8.66148 7.8742 8.60503 8.02378 8.4865 8.15643L8.48085 8.16207Z" fill="white"/>
<path d="M27.0598 4.91652C26.9131 4.84878 26.8058 4.74718 26.7465 4.61454C26.6873 4.47907 26.6647 4.28151 26.7409 4.09524L27.1191 4.20248C27.0711 4.29562 27.0824 4.40569 27.088 4.42827C27.105 4.50165 27.1473 4.55245 27.2235 4.58631C27.2912 4.61454 27.3477 4.61736 27.407 4.59478C27.4634 4.5722 27.5057 4.52987 27.534 4.46496C27.5452 4.43956 27.5509 4.41416 27.5537 4.39158C27.5565 4.369 27.5537 4.34642 27.5452 4.32384C27.5368 4.29844 27.5255 4.27304 27.5086 4.24764C27.4888 4.21942 27.4634 4.18837 27.4352 4.15451L27.3082 4.02186C27.1106 3.81301 27.0542 3.60416 27.1417 3.40096C27.2009 3.26267 27.3054 3.16954 27.4493 3.12156C27.5904 3.07358 27.74 3.08487 27.8924 3.14978L27.9037 3.15542C28.1577 3.27114 28.2847 3.51667 28.2565 3.71988L27.9037 3.7227C27.9178 3.61545 27.8613 3.5449 27.7484 3.49127C27.6892 3.46305 27.6384 3.46023 27.5904 3.47434C27.5452 3.48845 27.517 3.51385 27.4973 3.55336C27.4747 3.60699 27.5001 3.67472 27.5791 3.75657L27.7118 3.89204C27.8275 4.01057 27.9009 4.12628 27.9319 4.23917C27.9629 4.35489 27.9517 4.47624 27.898 4.60042C27.8275 4.76412 27.7118 4.87701 27.5537 4.9391C27.3957 4.99836 27.2348 4.99554 27.0711 4.92499L27.0598 4.91652Z" fill="white"/>
<path d="M25.6769 4.31241C25.5245 4.25879 25.4088 4.16848 25.3382 4.04148C25.2649 3.91165 25.2253 3.71692 25.2846 3.525L25.6713 3.59556C25.6318 3.69434 25.6543 3.80158 25.66 3.82134C25.6826 3.8919 25.7305 3.93988 25.8096 3.96528C25.8801 3.98785 25.9366 3.98503 25.993 3.95681C26.0494 3.92859 26.0861 3.88343 26.1087 3.8157C26.1172 3.7903 26.1228 3.76489 26.12 3.73949C26.12 3.71692 26.1144 3.69434 26.1059 3.67176C26.0974 3.64918 26.0805 3.62378 26.0607 3.59838C26.0382 3.57016 26.0099 3.54194 25.9789 3.51371L25.8406 3.39518C25.6233 3.20609 25.5471 3.00288 25.6176 2.79121C25.6656 2.64728 25.7588 2.54568 25.8999 2.48641C26.0382 2.42714 26.1877 2.4215 26.3458 2.4723L26.3571 2.47512C26.6224 2.56543 26.7691 2.79968 26.7607 3.0057L26.4107 3.04239C26.4135 2.93515 26.3514 2.87024 26.2357 2.8279C26.1736 2.80532 26.1228 2.80815 26.0777 2.8279C26.0353 2.84484 26.0071 2.87306 25.993 2.91539C25.9732 2.97184 26.0071 3.03675 26.0918 3.11013L26.2357 3.23431C26.3627 3.34155 26.4446 3.4488 26.4869 3.55887C26.5292 3.67176 26.5292 3.79312 26.4869 3.92294C26.4305 4.09228 26.326 4.21646 26.1765 4.28984C26.0269 4.36322 25.8632 4.3745 25.6938 4.32088L25.6769 4.31241Z" fill="white"/>
<path d="M21.1869 3.28801L20.8003 3.25696L20.9499 1.37451L21.3111 1.40273C21.4663 1.41402 21.5792 1.43378 21.6583 1.462C21.7429 1.49305 21.8163 1.54103 21.8756 1.61158C21.98 1.73012 22.0252 1.87405 22.011 2.04057C21.9969 2.21837 21.9236 2.35948 21.7937 2.45544C21.6667 2.54858 21.503 2.59091 21.3055 2.57398L21.2434 2.56833L21.1869 3.28801ZM21.2744 2.20708L21.3139 2.2099C21.3337 2.21273 21.3563 2.21273 21.3732 2.21273C21.5934 2.21273 21.63 2.10548 21.6357 2.01234C21.6442 1.92203 21.6187 1.79785 21.3337 1.77527L21.3055 1.77245L21.2744 2.20708Z" fill="white"/>
<path d="M23.5123 3.6238L23.041 3.53067L22.7051 2.72914L22.5866 3.45446L22.2056 3.38673L22.5273 1.52686L22.8942 1.59177C23.1397 1.6341 23.3091 1.71313 23.405 1.82884C23.5123 1.95866 23.5518 2.11389 23.5207 2.28887C23.4982 2.42434 23.4361 2.53723 23.3401 2.62472C23.2667 2.68963 23.1792 2.73196 23.0833 2.75172L23.5123 3.6238ZM22.77 2.39047L22.7954 2.39329C22.8378 2.40176 22.8773 2.40458 22.9111 2.40458C23.0522 2.40458 23.1256 2.34814 23.1482 2.22113C23.1595 2.15058 23.1482 2.09695 23.1087 2.05744C23.0664 2.01229 22.9873 1.97842 22.8801 1.96148L22.8462 1.95584L22.77 2.39047Z" fill="white"/>
<path d="M6.5928 10.4284L6.33879 10.8348L5.46953 10.863L6.10454 11.2299L5.90698 11.5629L4.28418 10.6005L4.47327 10.2788C4.60027 10.0643 4.73292 9.93448 4.87686 9.88368C5.0349 9.83006 5.19577 9.84699 5.34818 9.93731C5.46671 10.0079 5.55138 10.1038 5.59653 10.2252C5.63322 10.3183 5.64169 10.4143 5.62476 10.5102L6.5928 10.4284ZM5.17602 10.6824L5.18731 10.6598C5.20988 10.6231 5.22682 10.5864 5.23811 10.5554C5.28891 10.4227 5.26068 10.3352 5.15062 10.2703C5.08853 10.2336 5.0349 10.228 4.98128 10.2506C4.92483 10.276 4.86557 10.3352 4.80912 10.4284L4.79783 10.4594L5.17602 10.6824Z" fill="white"/>
<path d="M12.4858 5.09976L12.0681 5.33401L11.2892 4.94453L11.6702 5.57108L11.3372 5.76864L10.3691 4.14865L10.6881 3.95674C10.9025 3.82692 11.0804 3.77894 11.2299 3.80152C11.3964 3.82974 11.5263 3.92287 11.6166 4.07528C11.6871 4.19381 11.7154 4.31799 11.6984 4.44782C11.6843 4.54659 11.6476 4.63409 11.5855 4.71311L12.4858 5.09976ZM11.1199 4.64537L11.1396 4.63409C11.1763 4.61151 11.2074 4.58893 11.2356 4.56635C11.3428 4.47322 11.3626 4.3829 11.2948 4.27283C11.2582 4.21074 11.213 4.1797 11.1566 4.17406C11.0945 4.16841 11.0154 4.19381 10.9223 4.25026L10.8913 4.26719L11.1199 4.64537Z" fill="white"/>
<path d="M33.3818 10.3972L33.1052 10.0049L33.4128 9.18924L32.8286 9.63516L32.5972 9.32471L34.1099 8.1958L34.3329 8.49496C34.4824 8.69534 34.5502 8.8675 34.5417 9.0199C34.5304 9.18924 34.4542 9.32753 34.3103 9.43478C34.2002 9.51662 34.0789 9.55896 33.949 9.55331C33.8503 9.55049 33.7571 9.52227 33.6753 9.46864L33.3818 10.3972ZM33.6894 8.99168L33.7035 9.01144C33.7289 9.0453 33.7543 9.07635 33.7797 9.09893C33.8841 9.19771 33.9744 9.20617 34.076 9.12997C34.1325 9.08764 34.1607 9.03966 34.1607 8.98321C34.1607 8.92112 34.1268 8.84492 34.0619 8.75743L34.0422 8.72921L33.6894 8.99168Z" fill="white"/>
<path d="M24.7966 3.96248L23.7383 3.67461L24.235 1.85425L25.2933 2.14212L25.1946 2.50055L24.5116 2.31428L24.4326 2.60779L25.0958 2.78842L24.997 3.14685L24.3338 2.96622L24.2096 3.42061L24.8926 3.60688L24.7966 3.96248Z" fill="white"/>
<path d="M29.1623 5.9607C28.976 5.9607 28.7954 5.90708 28.6289 5.79983C28.4257 5.67001 28.2845 5.47809 28.214 5.23538C28.135 4.96444 28.1773 4.69915 28.3382 4.44514C28.4821 4.22218 28.6881 4.08107 28.9534 4.02745C29.2159 3.971 29.4671 4.01898 29.6929 4.16292C29.9186 4.30685 30.0597 4.51288 30.119 4.77817C30.1783 5.04346 30.1331 5.29182 29.9892 5.51761C29.8424 5.74339 29.6364 5.88732 29.3711 5.94095C29.3034 5.95506 29.2328 5.9607 29.1623 5.9607ZM29.1764 4.37741C29.134 4.37741 29.0889 4.38305 29.0409 4.39152C28.88 4.42539 28.7587 4.51288 28.6655 4.65681C28.5696 4.80922 28.5414 4.96162 28.5781 5.12249C28.6176 5.28618 28.6994 5.40472 28.8321 5.48938C28.9337 5.5543 29.0409 5.58816 29.1538 5.58816C29.1961 5.58816 29.2413 5.58252 29.2864 5.57405C29.4501 5.53736 29.5743 5.44987 29.6646 5.30594C29.7578 5.15918 29.786 5.0096 29.7521 4.85155C29.7183 4.69068 29.6336 4.56932 29.4896 4.47619C29.3909 4.40845 29.2836 4.37741 29.1764 4.37741Z" fill="white"/>
<path d="M31.0789 7.46197C30.9999 7.46197 30.9265 7.44785 30.8588 7.41963C30.777 7.38012 30.6895 7.32085 30.5935 7.23901L30.2407 6.93702L31.4656 5.50049L31.7506 5.74603C32.1288 6.07623 32.1119 6.42619 31.9736 6.58706C31.8381 6.74511 31.6631 6.76769 31.5587 6.72535C31.6095 6.80438 31.6321 6.92009 31.6236 6.99911C31.6123 7.10636 31.5728 7.17409 31.4966 7.26441C31.3979 7.38294 31.268 7.44503 31.1156 7.45632C31.1043 7.46197 31.0902 7.46197 31.0789 7.46197ZM30.7741 6.9088L30.8532 6.97653C30.9322 7.04427 31.0027 7.08096 31.062 7.08096C31.1241 7.08096 31.1721 7.05838 31.2088 7.01322C31.2483 6.96807 31.2624 6.91727 31.2539 6.858C31.2483 6.81567 31.2172 6.74793 31.0959 6.64351L31.0394 6.59553L30.7741 6.9088ZM31.2652 6.33024L31.2821 6.34435C31.4035 6.44877 31.5531 6.47417 31.6321 6.38104C31.7139 6.2879 31.6773 6.16372 31.5446 6.05083L31.5192 6.02825L31.2652 6.33024Z" fill="white"/>
<path d="M32.4845 9.14407L32.2023 8.82234L32.3829 8.40464L31.92 7.90792L31.4939 8.04903L31.1919 7.74705L33.3086 7.09229L32.4845 9.14407ZM32.27 7.78656L32.5325 8.06879L32.7385 7.61723L32.27 7.78656Z" fill="white"/>
<path d="M33.7687 11.0859C33.6812 10.9505 33.6473 10.8065 33.6671 10.6626C33.6897 10.5158 33.78 10.338 33.9437 10.2223L34.2033 10.5158C34.113 10.5695 34.0622 10.6682 34.0566 10.688C34.0312 10.7585 34.0396 10.8235 34.0848 10.894C34.1243 10.9561 34.1723 10.9872 34.2344 10.9984C34.2964 11.0097 34.3529 10.9956 34.4122 10.9589C34.4347 10.9448 34.4545 10.9251 34.4686 10.9081C34.4827 10.8912 34.4912 10.8714 34.4996 10.846C34.5053 10.8206 34.5109 10.7924 34.5109 10.7614C34.5109 10.7275 34.5053 10.688 34.4968 10.6428L34.4601 10.4622C34.4065 10.18 34.4714 9.97396 34.6549 9.84978C34.7791 9.76511 34.9173 9.74253 35.0641 9.78204C35.208 9.81873 35.3294 9.90904 35.4225 10.0473L35.4282 10.0558C35.5806 10.2901 35.5524 10.5666 35.4197 10.7219L35.1205 10.5356C35.1911 10.4537 35.1798 10.3634 35.1149 10.2562C35.081 10.1997 35.0387 10.1715 34.9907 10.1574C34.9456 10.1433 34.9061 10.1489 34.8694 10.1743C34.8214 10.2082 34.8073 10.2788 34.8299 10.3888L34.8694 10.5751C34.9032 10.736 34.9032 10.8743 34.8665 10.9843C34.8299 11.1 34.7537 11.196 34.6436 11.2694C34.494 11.3682 34.336 11.402 34.1723 11.3682C34.0086 11.3343 33.8731 11.2412 33.7743 11.0944L33.7687 11.0859Z" fill="white"/>
<path d="M5.7548 8.13949C5.87638 8.13949 5.97494 8.04093 5.97494 7.91935C5.97494 7.79778 5.87638 7.69922 5.7548 7.69922C5.63323 7.69922 5.53467 7.79778 5.53467 7.91935C5.53467 8.04093 5.63323 8.13949 5.7548 8.13949Z" fill="white"/>
<path d="M5.2548 8.81674C5.37638 8.81674 5.47494 8.71818 5.47494 8.5966C5.47494 8.47502 5.37638 8.37646 5.2548 8.37646C5.13323 8.37646 5.03467 8.47502 5.03467 8.5966C5.03467 8.71818 5.13323 8.81674 5.2548 8.81674Z" fill="white"/>
</svg>
