<svg width="259" height="259" viewBox="0 0 259 259" fill="none" xmlns="http://www.w3.org/2000/svg">
<path d="M104.967 68.3822C105.205 68.1447 104.638 66.3538 104.766 65.9883C104.894 65.6229 105.552 64.4899 105.552 64.4899C105.552 64.4899 106.191 65.1112 106.721 65.2391C107.233 65.367 108.019 65.5863 108.512 65.897C108.53 66.4269 108.22 67.6878 108.074 68.3092C107.927 68.9305 108.512 67.9985 109.133 68.1447C109.755 68.2909 109.28 69.4787 109.755 69.7163C110.23 69.9538 112.295 69.9904 112.843 69.8442C113.41 69.698 112.222 68.7295 111.637 68.3457C111.235 68.0716 110.796 65.9152 110.632 64.636C110.541 64.033 109.883 63.9416 109.59 63.9964C109.115 64.0878 106.941 62.1142 106.941 62.1142C107.142 61.767 107.708 60.3051 107.873 59.5558C108.037 58.8066 106.886 58.1122 105.771 58.3863C105.917 57.7649 107.215 54.439 108.074 54.4756C108.074 54.4756 108.22 55.17 108.037 55.9193C107.873 56.6685 108.622 57.1984 109.06 57.5639C109.499 57.9294 110.047 57.3081 110.522 57.0157C110.997 56.7233 111.034 56.0654 111.144 55.5538C111.253 55.0604 112.532 54.0187 112.752 53.6715C112.953 53.3243 114.305 53.2329 114.89 52.9588C115.402 52.7395 115.219 52.4472 115.274 51.8989C122.126 49.9436 117.777 46.5446 115.584 45.3385C116.279 42.5243 114.159 40.6055 112.66 39.8014C112.057 39.4725 111.765 39.6552 112.313 40.039C113.866 41.1172 115.182 44.3334 112.185 46.7822C111.856 46.7273 111.564 46.6542 111.454 46.5446C111.144 46.2157 111.546 45.3568 111.363 44.9547C111.18 44.5527 110.248 43.5111 110.084 43.8766C109.737 44.6441 109.718 45.5395 110.157 46.7639C108.896 47.44 107.836 48.8106 107.087 49.1395C104.4 50.2543 100.947 48.9202 100.49 48.3537C100.051 47.8055 100.472 49.7426 101.257 50.2177C100.709 50.4187 99.8136 50.3456 99.174 49.9801C98.7537 49.7426 99.1558 50.4004 99.5578 50.8573C97.9497 50.9669 97.438 51.6431 96.1222 52.1182C94.971 52.3558 93.3994 52.2096 92.9425 52.0817C92.5222 51.9538 93.0156 52.7761 93.5639 53.2878C92.9425 53.7994 92.5771 54.2563 92.4309 54.4208C91.8826 55.0969 89.1232 60.835 89.1232 60.835L87.1496 65.2391C87.1496 65.2391 86.8024 65.9152 86.0349 65.8787C83.6044 65.769 81.8318 63.0096 82.8186 61.6574C83.1476 61.2188 82.0329 61.6391 81.6856 61.9497C81.3384 62.2604 80.7537 62.9183 81.174 63.7589C80.9547 63.9233 80.1323 63.7589 79.6389 63.631C79.2186 63.5213 79.8034 65.0746 81.7405 65.1477C81.5029 65.5863 80.973 65.769 80.5527 65.897C80.2054 66.0066 81.4481 66.6828 82.8004 66.0066C82.7821 66.5366 82.5994 66.8107 82.2704 67.0482C81.9963 67.2493 83.2572 67.5416 84.1892 66.701C84.0613 67.3041 83.4948 67.6513 83.7506 67.834C84.0065 68.0168 84.8105 67.8706 85.4501 67.3223C85.578 67.5599 84.8105 68.565 84.7192 69.0401C84.6278 69.5152 84.8288 70.7396 84.9567 71.2696C85.0846 71.7995 86.1811 76.0757 86.1811 76.0757C86.1811 76.0757 85.6877 78.8899 85.3222 79.9498C84.9567 81.0097 84.9567 82.4351 84.4085 83.0747C84.1892 83.3305 85.4501 82.8006 85.2674 84.2808C85.1943 84.9387 84.0796 92.358 82.9283 94.624C82.7273 95.0077 82.6542 95.3732 82.5263 95.5925C82.3983 95.8118 82.508 96.0311 82.709 96.1956C83.1659 96.5793 82.1608 98.1509 82.1973 98.6443C82.2521 99.4484 82.6725 101.714 83.2024 101.66C83.7324 101.605 83.9699 100.545 83.9699 100.545C83.9699 100.545 84.445 101.769 84.8288 101.696C85.2308 101.623 85.7791 99.9966 84.8471 98.0961C84.6643 97.7489 86.4369 90.4757 86.4369 90.4757L87.5151 88.027L89.708 82.7092C89.708 82.7092 91.4441 81.9051 91.6268 80.4615C91.6816 80.0777 93.6004 81.1011 93.6004 81.1011L92.8694 82.9285C92.8694 82.9285 91.042 84.0067 90.9324 84.3904C90.8227 84.7742 90.9507 85.1214 91.2248 85.7245C91.4989 86.3275 91.5354 89.6717 91.0055 91.1336C90.8227 91.627 91.6999 91.1153 91.8278 91.2981C92.2664 91.8646 91.0238 93.3631 91.243 93.7834C91.4441 94.2037 93.4725 95.5925 94.1121 95.7204C95.0258 95.9032 93.8928 92.8514 93.8928 92.8514C93.8928 92.8514 94.441 91.3164 94.3862 90.8961C94.3131 90.4027 93.6004 89.7448 93.5639 89.1783C93.5273 88.7214 93.1984 85.8341 93.3811 85.4686C93.5639 85.1031 95.7202 84.1712 96.6522 83.897C97.5842 83.6229 99.0278 81.631 100.161 80.2605C100.636 79.694 100.727 78.9082 100.398 78.3051C99.9781 77.5193 98.9547 75.3447 97.9862 73.5904C98.8268 73.4625 100.27 72.4208 99.6492 72.2381C99.174 72.1102 98.5893 71.7813 98.6806 71.3792C99.8867 71.562 101.202 70.5021 100.837 70.5021C100.051 70.4838 98.6624 70.0452 98.6989 68.8939C98.7537 66.6645 100.691 63.1376 100.947 63.0096C101.367 62.8086 103.085 63.0462 103.615 63.0462C103.871 63.0462 103.03 64.0513 102.299 64.3437C102.646 64.6543 102.975 64.9102 102.829 65.1477C102.664 65.4584 102.262 65.7508 102.153 65.8604C101.787 66.299 102.902 68.4005 103.267 68.4188C103.45 68.4371 103.797 67.6696 103.797 67.6696C103.797 67.6696 104.656 68.6929 104.967 68.3822ZM115.493 45.7954C117.01 46.8553 118.49 48.9751 114.853 49.834C114.634 49.2675 114.36 48.6827 114.122 48.171C114.798 47.3121 115.237 46.5263 115.493 45.7954Z" fill="white"/>
<path d="M179.288 63.6858C178.795 63.8137 177.972 63.9599 177.753 63.8137C178.173 62.9731 177.588 62.297 177.241 62.0046C176.894 61.6756 175.779 61.2553 176.108 61.7122C177.077 63.0462 175.322 65.8239 172.892 65.9335C172.124 65.9335 171.777 65.2574 171.777 65.2574L169.804 60.8533C169.804 60.8533 167.044 55.0969 166.496 54.4391C166.368 54.2746 166.003 53.8177 165.363 53.3061C165.911 52.8127 166.405 51.9903 165.984 52.1C165.528 52.2279 163.956 52.3741 162.805 52.1365C161.471 51.6614 160.959 50.967 159.369 50.8756C159.753 50.4188 160.155 49.7609 159.753 49.9984C159.113 50.3639 158.218 50.437 157.67 50.236C158.474 49.7609 158.894 47.8238 158.437 48.372C157.98 48.9385 154.526 50.2726 151.84 49.1578C151.073 48.8472 150.031 47.4583 148.77 46.7822C149.209 45.5761 149.209 44.6624 148.843 43.8949C148.679 43.5477 147.747 44.5893 147.564 44.973C147.381 45.3751 147.783 46.234 147.473 46.5629C147.363 46.6908 147.071 46.7639 146.742 46.8005C143.745 44.3517 145.06 41.1355 146.614 40.0573C147.162 39.6735 146.87 39.4908 146.267 39.8197C144.768 40.6238 142.648 42.5609 143.343 45.3568C141.15 46.5629 136.801 49.9619 143.653 51.9172C143.708 52.4655 143.544 52.7578 144.037 52.9771C144.622 53.233 145.956 53.3426 146.175 53.6898C146.376 54.037 147.674 55.0604 147.783 55.5721C147.893 56.0655 147.948 56.7416 148.405 57.034C148.861 57.3264 149.41 57.9477 149.848 57.5822C150.287 57.2167 151.036 56.6868 150.872 55.9376C150.707 55.1883 150.835 54.4939 150.835 54.4939C151.694 54.4573 153.01 57.765 153.138 58.4046C152.041 58.1305 150.872 58.8249 151.036 59.5741C151.201 60.3234 151.767 61.7853 151.968 62.1325C151.968 62.1325 149.793 64.1061 149.318 64.0147C149.026 63.9599 148.368 64.0513 148.277 64.6543C148.094 65.9153 147.674 68.0899 147.272 68.364C146.705 68.7477 145.517 69.7163 146.066 69.8625C146.632 70.0087 148.679 69.9721 149.154 69.7346C149.629 69.497 149.154 68.3092 149.775 68.163C150.396 68.0168 150.981 68.967 150.835 68.3274C150.689 67.7061 150.378 66.4452 150.397 65.9153C150.89 65.6046 151.676 65.3853 152.187 65.2574C152.699 65.1295 153.357 64.5081 153.357 64.5081C153.357 64.5081 154.015 65.6411 154.143 66.0066C154.271 66.3721 153.704 68.163 153.942 68.4005C154.252 68.7295 155.002 67.7975 155.002 67.7975C155.002 67.7975 155.349 68.565 155.532 68.5467C155.879 68.5285 156.993 66.4269 156.646 65.9883C156.537 65.8604 156.153 65.568 155.97 65.2757C155.824 65.0198 156.153 64.7823 156.5 64.4716C155.769 64.1792 154.928 63.1741 155.184 63.1741C155.714 63.1924 157.432 62.9366 157.852 63.1376C158.126 63.2655 160.045 66.7924 160.1 69.0219C160.137 70.1731 158.73 70.5934 157.962 70.63C157.597 70.6483 158.912 71.7082 160.118 71.5072C160.21 71.9092 159.607 72.2381 159.15 72.366C158.528 72.5488 159.99 73.5904 160.813 73.7183C159.844 75.4909 158.821 77.6473 158.401 78.4331C158.072 79.0361 158.181 79.8219 158.638 80.3884C159.771 81.759 161.215 83.7691 162.147 84.025C163.079 84.2991 165.253 85.2311 165.418 85.5965C165.601 85.962 165.272 88.8493 165.235 89.3062C165.199 89.8727 164.486 90.5306 164.413 91.024C164.358 91.4443 164.906 92.9793 164.906 92.9793C164.906 92.9793 163.773 96.0311 164.687 95.8484C165.327 95.7204 167.355 94.3133 167.556 93.9113C167.757 93.491 166.514 92.0108 166.971 91.426C167.117 91.2433 167.976 91.7549 167.794 91.2615C167.264 89.7996 167.3 86.4554 167.574 85.8524C167.848 85.2493 167.958 84.9021 167.867 84.5184C167.757 84.1346 165.93 83.0564 165.93 83.0564L165.199 81.229C165.199 81.229 167.117 80.2057 167.172 80.5894C167.355 82.0331 169.091 82.8371 169.091 82.8371L171.284 88.1549L172.362 90.6037C172.362 90.6037 174.135 97.8768 173.952 98.224C173.02 100.125 173.568 101.733 173.97 101.824C174.372 101.897 174.829 100.673 174.829 100.673C174.829 100.673 175.085 101.714 175.597 101.787C176.127 101.861 176.547 99.5763 176.602 98.7722C176.638 98.2605 175.633 96.689 176.09 96.3235C176.291 96.159 176.419 95.9397 176.273 95.7204C176.145 95.5011 176.072 95.1357 175.871 94.7519C174.738 92.4676 173.623 85.0666 173.532 84.4087C173.349 82.9285 174.61 83.4585 174.39 83.2026C173.842 82.563 173.842 81.1376 173.477 80.0777C173.111 79.0178 172.618 76.2036 172.618 76.2036C172.618 76.2036 173.714 71.9092 173.842 71.3975C173.97 70.8676 174.171 69.6432 174.08 69.1681C173.988 68.6929 173.221 67.6878 173.349 67.4503C173.97 67.9985 174.793 68.1447 175.048 67.962C175.304 67.7792 174.738 67.4503 174.61 66.829C175.542 67.6696 176.803 67.3772 176.529 67.1762C176.2 66.9386 176.017 66.6645 175.999 66.1345C177.351 66.7924 178.594 66.1345 178.246 66.0249C177.844 65.897 177.296 65.696 177.059 65.2757C179.123 65.1112 179.708 63.5762 179.288 63.6858ZM143.489 45.7954C143.726 46.5264 144.183 47.3121 144.859 48.171C144.622 48.6827 144.366 49.2675 144.128 49.834C140.492 48.9751 141.972 46.8553 143.489 45.7954Z" fill="white"/>
<path d="M127.042 96.2136C127.261 95.5557 126.585 94.7151 125.525 94.3679C124.465 94.0207 123.424 94.2583 123.204 94.9344C122.985 95.5923 123.661 96.4329 124.721 96.7801C125.781 97.1273 126.823 96.8715 127.042 96.2136Z" fill="white"/>
<path d="M126.549 97.182C125.653 97.4379 125.069 98.114 125.233 98.6805C125.397 99.247 126.256 99.4846 127.152 99.2105C128.047 98.9546 128.632 98.2785 128.468 97.712C128.303 97.1455 127.444 96.9079 126.549 97.182Z" fill="white"/>
<path d="M128.193 94.7155C128.65 94.35 128.577 93.4728 127.992 92.7418C127.426 92.0109 126.585 91.7002 126.128 92.0474C125.672 92.4129 125.745 93.2901 126.329 94.021C126.896 94.7703 127.737 95.081 128.193 94.7155Z" fill="white"/>
<path d="M152.37 75.0888C151.274 74.9426 149.684 74.8695 148.076 75.3447C146.76 74.7599 145.042 75.1254 144.238 75.6553C142.356 75.6553 140.748 76.0756 139.889 77.2817C137.55 77.501 136.106 79.1822 135.704 80.6624C132.561 82.1426 131.062 85.0848 130.551 90.2016C130.313 90.5488 130.076 90.9874 129.893 91.4808C129.875 90.3112 129.856 89.3061 129.856 88.7396C129.856 87.9173 129.966 87.1132 130.039 86.364C130.222 86.0168 130.441 85.5234 130.569 85.0117C130.843 83.8422 131.062 82.4716 131.172 81.7772C131.282 81.0827 131.629 80.2604 132.232 79.8401C132.817 79.4381 133.895 79.0543 134.242 78.7071C134.955 77.9944 134.498 77.6837 135.083 77.0624C135.594 76.5142 136.27 76.4959 136.764 75.9843C137.221 75.4908 137.111 74.5954 137.403 74.102C137.714 73.5538 138.262 73.1883 138.482 72.7314C138.701 72.2929 138.445 71.7264 138.683 70.9223C138.865 70.301 138.957 69.5883 138.518 68.437C138.518 68.437 138.098 69.4969 137.257 69.8624C136.033 70.4106 133.73 71.6533 132.506 72.8776C130.898 74.4858 129.619 76.9893 130.679 80.4249C130.679 81.2655 130.368 83.1295 130.185 83.8056C130.13 84.0066 130.076 84.1894 130.021 84.3538C129.929 83.9518 129.765 83.6046 129.491 83.3305C129.491 83.3122 129.491 83.2939 129.472 83.2939C129.472 83.2939 129.472 83.3122 129.454 83.3122C129.454 83.3122 129.454 83.2939 129.436 83.2939C129.436 83.3122 129.436 83.3305 129.418 83.3305C129.144 83.6229 128.979 83.9701 128.888 84.3538C128.833 84.1894 128.778 84.0066 128.723 83.8056C128.541 83.1112 128.23 81.2472 128.23 80.4249C129.29 76.9893 128.011 74.4858 126.402 72.8776C125.178 71.6533 122.876 70.4106 121.651 69.8624C120.811 69.4786 120.39 68.437 120.39 68.437C119.952 69.5883 120.043 70.301 120.226 70.9223C120.463 71.7446 120.207 72.2929 120.427 72.7314C120.646 73.1883 121.194 73.5355 121.505 74.102C121.779 74.5954 121.669 75.4908 122.145 75.9843C122.638 76.4959 123.314 76.5142 123.826 77.0624C124.429 77.6837 123.954 77.9944 124.666 78.7071C125.014 79.0543 126.11 79.4563 126.677 79.8401C127.28 80.2604 127.645 81.0827 127.736 81.7772C127.846 82.4716 128.065 83.8422 128.34 85.0117C128.467 85.5417 128.687 86.0168 128.869 86.364C128.943 87.1132 129.052 87.9173 129.052 88.7396C129.052 89.3061 129.034 90.3112 129.016 91.4808C128.833 90.9874 128.595 90.5488 128.358 90.2016C127.846 85.0848 126.348 82.1426 123.204 80.6624C122.802 79.1822 121.377 77.501 119.02 77.2817C118.161 76.0756 116.553 75.6553 114.67 75.6553C113.866 75.1254 112.149 74.7599 110.833 75.3447C109.225 74.8695 107.635 74.9243 106.538 75.0888C105.186 75.2716 103.998 73.7 103.998 73.7C104.291 76.3497 104.839 77.7203 105.661 78.7071C106.739 80.0046 106.538 81.302 107.671 82.234C108.457 82.8736 109.992 82.3802 110.997 83.166C111.911 83.8787 112.112 85.7244 113.391 86.3092C114.725 86.9122 115.749 86.2361 117.156 86.8574C118.8 87.5884 117.923 88.7945 119.879 89.5985C120.811 89.9823 122.565 88.8858 123.844 89.5437C125.123 90.2016 125.434 91.097 127.28 90.8229C128.559 91.3163 128.687 92.7051 128.979 93.5823C128.924 95.9214 128.869 98.9549 128.869 99.8686C129.089 99.8686 129.29 99.8686 129.454 99.8686C129.619 99.8686 129.82 99.8686 130.039 99.8686C130.039 98.9549 129.984 95.9214 129.929 93.5823C130.222 92.7051 130.331 91.3163 131.629 90.8229C133.475 91.097 133.785 90.2016 135.064 89.5437C136.344 88.8858 138.08 89.9823 139.03 89.5985C140.985 88.7945 140.108 87.5884 141.753 86.8574C143.16 86.2361 144.183 86.8939 145.517 86.3092C146.796 85.7427 146.997 83.8787 147.911 83.166C148.935 82.3802 150.47 82.8736 151.237 82.234C152.37 81.302 152.169 80.0046 153.247 78.7071C154.07 77.7203 154.618 76.3497 154.91 73.7C154.928 73.7 153.741 75.2716 152.37 75.0888ZM138.354 69.8989C137.933 74.2299 131.154 76.6787 131.19 80.169C130.35 75.8198 136.746 73.6086 138.354 69.8989ZM127.773 80.1508C127.828 76.6604 121.048 74.2117 120.61 69.8807C122.218 73.6086 128.614 75.8198 127.773 80.1508ZM105.259 76.0025C106.082 77.6107 107.69 78.7619 109.682 79.7305C110.029 78.2685 109.005 77.2086 108.037 76.4228C109.334 76.9711 110.705 77.8117 110.431 80.0594C111.253 80.4249 112.13 80.7538 113.044 81.0645C113.501 79.7305 113.336 78.4513 111.582 76.8797C113.903 77.8848 114.433 79.9315 113.994 81.3934C114.926 81.7041 115.877 81.9965 116.827 82.2888C117.43 80.6442 116.955 78.7985 115.511 77.1355C118.015 78.5792 118.252 80.8635 117.722 82.563C118.819 82.9102 119.897 83.2757 120.92 83.6777C121.578 81.7772 120.957 80.4432 119.623 78.7437C122.145 80.0777 122.254 82.4533 121.779 84.0249C122.839 84.4635 123.808 84.9569 124.648 85.5051C124.977 84.6097 124.867 83.2757 123.643 81.8503C125.635 83.0015 125.872 84.8838 125.397 86.0533C126.804 87.1681 127.718 88.5752 127.81 90.4209C126.585 83.5132 107.525 84.1528 105.259 76.0025ZM131.154 90.4391C131.245 88.5934 132.159 87.1863 133.566 86.0716C133.091 84.9021 133.328 83.0381 135.32 81.8685C134.078 83.2939 133.968 84.6279 134.315 85.5234C135.156 84.9569 136.124 84.4817 137.184 84.0432C136.709 82.4533 136.819 80.0959 139.341 78.7619C138.025 80.4614 137.385 81.7954 138.043 83.696C139.066 83.2939 140.145 82.9467 141.241 82.5812C140.729 80.8817 140.949 78.5975 143.452 77.1538C142.009 78.8168 141.533 80.6442 142.137 82.3071C143.087 82.0147 144.037 81.7041 144.969 81.4117C144.512 79.9497 145.042 77.903 147.381 76.898C145.609 78.4695 145.444 79.767 145.919 81.0827C146.833 80.7721 147.71 80.4432 148.532 80.0777C148.258 77.8299 149.629 76.9711 150.926 76.4411C149.976 77.2086 148.953 78.2868 149.282 79.7487C151.274 78.7985 152.863 77.6289 153.704 76.0208C151.456 84.1528 132.378 83.5132 131.154 90.4391Z" fill="white"/>
<path d="M133.457 94.3499C132.397 94.6971 131.721 95.5378 131.94 96.1956C132.159 96.8535 133.201 97.1094 134.261 96.7621C135.321 96.4149 135.997 95.5743 135.778 94.9164C135.558 94.2586 134.517 94.0027 133.457 94.3499Z" fill="white"/>
<path d="M132.415 97.1825C131.519 96.9267 130.66 97.1642 130.496 97.7125C130.331 98.279 130.916 98.9368 131.812 99.2109C132.707 99.4668 133.566 99.2292 133.73 98.681C133.895 98.1145 133.31 97.4384 132.415 97.1825Z" fill="white"/>
<path d="M132.652 94.0392C133.219 93.3082 133.31 92.4128 132.853 92.0656C132.396 91.7001 131.556 92.0108 130.989 92.76C130.423 93.491 130.331 94.3864 130.788 94.7336C131.245 95.0808 132.086 94.7702 132.652 94.0392Z" fill="white"/>
<path d="M74.6684 179.251H69.8075C60.7801 179.251 50.6744 171.466 50.6744 161.032V109.151H60.3963V161.561C60.3963 164.467 62.3151 167.555 65.2938 168.798V109.151H74.6501V179.251H74.6684Z" fill="white"/>
<path d="M93.5641 178.795H83.8422V132.853H80.5345V124.1H93.5823V178.795H93.5641ZM93.5641 118.563H83.8422V109.371H93.5641V118.563Z" fill="white"/>
<path d="M113.976 179.708C107.397 179.708 102.043 174.353 102.043 167.775V121.084C102.043 114.505 108.165 109.151 115.146 109.151H125.288V132.652H116.315V118.087H114.652C113.172 118.087 111.783 119.111 111.783 120.774V168.286C111.783 169.255 113.026 170.498 113.994 170.498C115.109 170.498 116.315 169.2 116.315 168.286V158.82H126.037V167.756C126.019 174.353 120.61 179.708 113.976 179.708Z" fill="white"/>
<path d="M155.13 178.794H145.408V154.453H140.876V178.794H131.154V120.171C131.154 113.519 136.508 108.11 143.087 108.11C149.629 108.11 155.148 113.629 155.148 120.171V178.794H155.13ZM140.785 145.334H145.499V119.623C145.499 118.563 144.238 117.411 143.087 117.411C142.1 117.411 140.785 118.508 140.785 119.623V145.334Z" fill="white"/>
<path d="M172.307 178.794H162.585V109.151H181.792V118.343H172.326V136.672H181.335V145.992H172.326V178.794H172.307Z" fill="white"/>
<path d="M207.065 178.794H188.315V109.151C188.315 109.151 204.634 109.151 209.915 109.151C209.915 112.587 205.986 118.343 198.056 118.343C198.056 125.104 198.056 136.672 198.056 136.672H206.389V145.992H198.056V169.62H207.065V178.794Z" fill="white"/>
<path d="M103.651 225.686C103.231 225.558 102.792 225.448 102.354 225.321V225.302C93.6185 222.89 85.3586 219.363 77.7017 214.886C76.6418 214.192 75.6002 213.57 74.5951 213.004C62.0407 205.054 51.3138 194.492 43.1818 182.084C43.0721 181.901 42.9807 181.718 42.8528 181.536C42.1036 180.256 41.3726 179.105 40.6416 178.027C31.5411 162.64 26.3147 144.713 26.3147 125.562C26.3147 116.571 27.4842 107.836 29.8964 99.5942C31.2487 95.0074 30.9198 88.0449 29.1655 84.2439C27.7949 81.3018 25.9492 79.6388 24.3411 77.4459C22.4406 74.851 20.9421 71.1961 20.5035 68.5281C20.138 66.2804 18.5482 66.8286 17.7624 68.4916C15.807 72.6215 14.674 78.2865 15.5512 82.3799C17.2324 90.1647 22.4406 96.9993 22.9522 102.335C22.8974 102.536 22.8426 102.756 22.806 102.957C20.9603 100.142 18.3654 98.4978 16.1542 96.5241C13.6324 94.2764 11.3299 90.8409 10.3065 88.1911C9.44761 85.9617 7.93085 86.8571 7.474 88.7393C6.39582 93.3627 6.43237 99.4297 8.22324 103.432C11.5491 110.888 18.5116 117.137 20.4669 122.93C20.4669 123.168 20.4487 123.387 20.4487 123.625C17.8537 121.012 14.8933 119.513 12.1339 117.85C9.1004 116.023 6.03034 112.934 4.45876 110.394C3.12474 108.274 1.75418 109.499 1.66281 111.509C1.42524 116.534 2.66789 122.784 5.29937 126.567C10.142 133.529 18.6943 138.628 22.0203 144.183C22.0568 144.439 22.1116 144.677 22.1664 144.932C18.8771 142.63 15.4233 141.68 12.1522 140.492C8.64355 139.231 4.86079 136.673 2.72271 134.388C0.913566 132.488 -0.255982 134.041 0.0546787 136.143C0.840469 141.369 3.38058 147.564 6.87095 150.926C13.3035 157.14 23.6284 160.904 28.2152 166.13C28.3431 166.441 28.471 166.734 28.599 167.044C24.6517 165.345 20.8507 165.107 17.1776 164.595C13.3035 164.065 8.86284 162.256 6.15826 160.374C3.89226 158.784 3.0151 160.63 3.80089 162.731C5.73795 167.94 9.72172 173.733 14.0344 176.419C22.3309 181.609 34.5381 183.527 40.2944 188.352C40.4041 188.498 40.4955 188.644 40.6051 188.79C35.9452 187.822 31.8518 188.516 27.8314 188.864C23.738 189.229 18.7674 188.425 15.5695 187.128C12.8832 186.049 12.4263 188.133 13.7055 190.088C16.9218 194.949 22.3492 199.956 27.3929 201.692C37.2061 205.091 50.8569 204.214 57.9656 207.96C52.8488 208.051 48.7737 209.806 44.6802 211.195C40.5868 212.565 35.3239 212.967 31.7421 212.437C28.7269 211.999 28.7817 214.228 30.5726 215.909C35.0497 220.094 41.8112 223.859 47.3848 224.389C59.5737 225.576 75.3443 220.076 82.8733 224.352C76.7332 225.211 71.123 226.947 67.0844 229.012C63.0458 231.059 57.4722 232.082 53.6894 232.447C50.5097 232.74 51.1128 234.476 53.3605 235.737C58.9707 238.88 67.3585 241.895 79.8946 240.981C94.3129 239.922 118.27 227.349 128.851 250.429C127.828 235.938 118.161 230.236 103.651 225.686ZM22.9157 90.7312C22.6781 89.58 22.8426 87.9353 23.2994 86.6195C23.4639 86.1261 24.0487 85.9982 24.268 86.7109C24.4873 87.4053 25.072 88.648 25.3827 89.1962C26.1685 90.5302 27.2101 91.9373 27.5208 93.8013C27.868 95.7932 26.8629 98.4795 25.9858 101.038C26.4609 97.2186 23.4639 93.3262 22.9157 90.7312ZM17.2872 111.18C16.7025 109.846 16.3735 107.818 16.4466 106.136C16.4649 105.515 17.1593 105.332 17.47 106.063C17.8355 106.886 18.8771 108.256 19.3888 108.859C20.5949 110.321 22.0933 111.82 22.9888 113.994C23.939 116.352 23.7198 119.769 23.5736 123.022C22.9157 118.325 18.6395 114.232 17.2872 111.18ZM15.3136 132.342C13.9613 130.605 12.3715 127.773 12.207 125.544C12.1339 124.648 12.7918 124.538 13.4497 125.544C14.1989 126.677 15.4598 127.609 16.3004 128.394C18.3471 130.331 20.5035 131.611 22.3309 134.662C23.7198 137.001 24.5421 139.213 25.3096 145.042C22.1116 137.897 18.3837 136.27 15.3136 132.342ZM17.4334 154.197C15.3867 152.553 13.1938 150.433 12.1522 148.057C11.6222 146.851 12.0608 146.431 13.1938 147.308C14.473 148.277 16.7207 149.209 17.9451 149.83C20.6862 151.219 23.1715 152.26 25.9858 155.422C28.1421 157.852 29.4761 161.196 31.669 166.88C26.205 159.314 21.801 157.706 17.4334 154.197ZM23.6832 177.259C20.3938 175.688 17.4883 173.33 15.8436 171.01C15.1857 170.078 15.7522 169.438 17.141 170.224C18.7126 171.119 21.0334 171.795 22.4954 172.216C25.9675 173.203 29.2203 173.879 33.2223 176.382C36.402 178.374 39.9655 182.943 43.0904 187.475C35.269 180.64 29.7502 180.165 23.6832 177.259ZM37.8457 200.742C34.0447 199.938 30.4447 198.238 28.1421 196.246C27.2101 195.442 27.6487 194.638 29.2751 195.095C31.1208 195.625 33.7157 195.735 35.3239 195.789C39.1797 195.936 42.7066 195.808 47.4762 197.379C51.2589 198.64 56.1199 202.46 60.5057 206.388C50.6924 201.308 44.8447 202.222 37.8457 200.742ZM57.7646 221.172C53.6711 221.337 49.5412 220.533 46.6721 219.089C45.5209 218.504 45.7401 217.572 47.531 217.609C49.5595 217.664 52.2275 217.097 53.8904 216.75C57.8559 215.891 61.4377 214.849 66.7189 215.233C70.922 215.526 76.8794 218.194 82.3799 221.063C71.0316 218.395 65.2935 220.862 57.7646 221.172ZM84.9748 236.431C81.0824 237.4 77.0621 237.948 73.992 237.29C72.7677 237.016 72.7494 236.084 74.4306 235.591C79.5291 234.129 85.0662 229.743 96.3414 228.665C102.628 228.062 113.519 230.711 118.051 236.047C107.781 229.98 92.4124 234.586 84.9748 236.431Z" fill="white"/>
<path d="M130.131 250.448C140.711 227.367 164.651 239.958 179.087 241C191.642 241.914 200.011 238.898 205.621 235.755C207.869 234.494 208.49 232.776 205.292 232.466C201.51 232.1 195.936 231.077 191.897 229.03C187.859 226.984 182.249 225.229 176.108 224.37C183.637 220.094 199.426 225.595 211.597 224.407C217.171 223.859 223.932 220.094 228.409 215.928C230.2 214.246 230.255 211.999 227.24 212.456C223.658 212.985 218.395 212.583 214.301 211.213C210.208 209.842 206.133 208.088 201.016 207.978C208.125 204.214 221.776 205.091 231.589 201.71C236.633 199.974 242.06 194.967 245.276 190.106C246.574 188.151 246.117 186.068 243.412 187.146C240.214 188.443 235.244 189.229 231.15 188.882C227.13 188.516 223.037 187.84 218.377 188.809C218.486 188.663 218.578 188.516 218.687 188.37C224.444 183.546 236.651 181.627 244.947 176.437C249.26 173.751 253.225 167.958 255.181 162.75C255.967 160.667 255.089 158.821 252.823 160.392C250.137 162.275 245.678 164.084 241.804 164.614C238.131 165.125 234.33 165.345 230.383 167.062C230.511 166.752 230.639 166.459 230.767 166.149C235.353 160.922 245.697 157.158 252.111 150.945C255.583 147.582 258.141 141.406 258.927 136.161C259.238 134.059 258.068 132.524 256.259 134.443C254.121 136.727 250.338 139.286 246.83 140.547C243.558 141.734 240.123 142.685 236.815 144.987C236.852 144.731 236.925 144.494 236.961 144.238C240.287 138.683 248.84 133.584 253.682 126.622C256.314 122.839 257.556 116.589 257.319 111.564C257.228 109.535 255.839 108.311 254.523 110.449C252.951 112.971 249.881 116.078 246.848 117.905C244.088 119.568 241.128 121.066 238.533 123.68C238.533 123.442 238.533 123.223 238.515 122.985C240.47 117.192 247.433 110.942 250.758 103.487C252.549 99.4663 252.586 93.3993 251.471 88.7393C251.014 86.8571 249.516 85.9617 248.639 88.1911C247.615 90.8409 245.313 94.2764 242.791 96.5241C240.58 98.4978 238.003 100.161 236.139 102.957C236.084 102.756 236.029 102.536 235.993 102.335C236.505 96.981 241.713 90.1647 243.394 82.3799C244.271 78.2865 243.138 72.6215 241.183 68.4916C240.397 66.8286 238.807 66.2804 238.442 68.5281C238.003 71.1961 236.523 74.851 234.604 77.4459C232.978 79.6388 231.132 81.3018 229.78 84.2439C228.007 88.0449 227.696 95.0074 229.049 99.5942C231.461 107.854 232.631 116.571 232.631 125.562C232.631 144.695 227.404 162.622 218.304 178.027C217.573 179.105 216.842 180.275 216.092 181.536C215.983 181.737 215.873 181.901 215.763 182.084C207.631 194.492 196.886 205.054 184.35 213.004C183.345 213.57 182.322 214.192 181.243 214.886C173.587 219.363 165.327 222.908 156.592 225.302V225.321C156.153 225.43 155.733 225.54 155.294 225.686C140.839 230.236 131.172 235.938 130.131 250.448ZM233.014 101.02C232.137 98.4612 231.132 95.7932 231.479 93.783C231.79 91.9191 232.832 90.5119 233.617 89.1779C233.946 88.6297 234.531 87.3688 234.732 86.6926C234.951 85.9799 235.536 86.1079 235.701 86.6013C236.157 87.917 236.322 89.58 236.084 90.713C235.554 93.3262 232.557 97.2186 233.014 101.02ZM235.426 123.022C235.28 119.769 235.061 116.333 236.011 113.994C236.907 111.801 238.387 110.303 239.611 108.859C240.105 108.256 241.165 106.886 241.53 106.063C241.859 105.332 242.535 105.515 242.553 106.136C242.626 107.818 242.298 109.846 241.694 111.18C240.36 114.232 236.103 118.325 235.426 123.022ZM233.69 145.06C234.458 139.231 235.28 137.02 236.669 134.681C238.496 131.629 240.653 130.331 242.7 128.413C243.54 127.627 244.801 126.695 245.55 125.562C246.208 124.557 246.866 124.666 246.793 125.562C246.629 127.773 245.039 130.624 243.686 132.36C240.616 136.27 236.888 137.897 233.69 145.06ZM227.331 166.88C229.524 161.196 230.858 157.852 233.014 155.422C235.847 152.26 238.314 151.2 241.055 149.83C242.279 149.209 244.545 148.295 245.806 147.308C246.939 146.449 247.378 146.851 246.848 148.057C245.806 150.433 243.613 152.553 241.567 154.197C237.217 157.706 232.795 159.314 227.331 166.88ZM215.91 187.456C219.035 182.924 222.616 178.356 225.778 176.364C229.78 173.86 233.033 173.184 236.505 172.198C237.967 171.777 240.287 171.101 241.859 170.206C243.248 169.42 243.814 170.059 243.156 170.991C241.493 173.312 238.588 175.67 235.317 177.241C229.268 180.165 223.731 180.64 215.91 187.456ZM198.494 206.407C202.88 202.478 207.741 198.659 211.524 197.398C216.293 195.826 219.82 195.936 223.676 195.808C225.284 195.753 227.879 195.625 229.725 195.113C231.351 194.656 231.79 195.461 230.858 196.265C228.555 198.256 224.955 199.974 221.154 200.76C214.155 202.222 208.326 201.308 198.494 206.407ZM176.602 221.044C182.102 218.175 188.06 215.526 192.263 215.215C197.544 214.849 201.126 215.891 205.091 216.732C206.754 217.097 209.422 217.645 211.451 217.591C213.242 217.536 213.461 218.486 212.31 219.071C209.441 220.514 205.311 221.318 201.217 221.154C193.706 220.862 187.968 218.395 176.602 221.044ZM140.949 236.047C145.481 230.711 156.372 228.062 162.659 228.665C173.916 229.743 179.471 234.129 184.569 235.591C186.251 236.066 186.251 237.016 185.008 237.29C181.938 237.966 177.918 237.4 174.025 236.431C166.588 234.586 151.219 229.98 140.949 236.047Z" fill="white"/>
<path d="M41.8112 64.6542C40.4772 64.6542 39.198 64.1974 38.0284 63.2837C36.6761 62.2421 35.8721 60.8349 35.6528 59.0989C35.4335 57.3628 35.8721 55.7913 36.932 54.4024C37.9919 53.0319 39.399 52.2095 41.135 51.9902C42.8711 51.7527 44.4609 52.173 45.8315 53.2329C47.2203 54.2928 48.0244 55.7182 48.2254 57.4359C48.4264 59.172 47.9878 60.7618 46.9097 62.169C45.9594 63.4116 44.6619 64.2157 43.0355 64.5446C42.6335 64.5994 42.2132 64.6542 41.8112 64.6542ZM41.8843 54.3476C41.7198 54.3476 41.5371 54.3659 41.3726 54.3841C40.3127 54.5121 39.4721 55.0055 38.8142 55.8644C38.1563 56.7415 37.9005 57.6735 38.0467 58.7334C38.1929 59.7933 38.6863 60.6339 39.5634 61.3101C40.3127 61.8766 41.0802 62.169 41.9208 62.169C42.1218 62.169 42.3046 62.1507 42.5056 62.1141C43.5655 61.9497 44.3878 61.4928 45.0092 60.6887C45.6853 59.8116 45.9411 58.8796 45.7949 57.8014C45.6487 56.7415 45.1371 55.8826 44.2599 55.2065C43.5289 54.6217 42.7432 54.3476 41.8843 54.3476Z" fill="white"/>
<path d="M60.4324 47.2933L53.9999 39.874L52.008 41.5918L50.4364 39.7826L56.3024 34.7024L57.874 36.5115L55.9004 38.2293L62.3329 45.6486L60.4324 47.2933Z" fill="white"/>
<path d="M90.8775 28.4348L86.4734 17.0317L88.8125 16.1362L93.2166 27.5393L90.8775 28.4348Z" fill="white"/>
<path d="M102.28 24.7616C101.604 24.7799 100.965 24.6154 100.362 24.3047C99.4296 23.7931 98.8083 23.0255 98.5342 22.0022C98.2053 20.7778 98.5159 19.59 99.4662 18.4753L99.9048 17.9636C99.1007 17.3788 98.589 16.7209 98.388 15.9717C98.1687 15.1311 98.2601 14.3453 98.6804 13.6509C99.1007 12.9565 99.7586 12.4996 100.636 12.262C101.476 12.0245 102.28 12.0976 102.975 12.4631C103.687 12.8285 104.163 13.4316 104.382 14.2174C104.528 14.7656 104.51 15.3321 104.309 15.8621C104.163 16.2824 103.852 16.8123 103.413 17.4154L105.35 18.7859C105.442 18.6032 105.533 18.4387 105.606 18.256C105.734 17.9819 105.862 17.7078 105.972 17.4519L106.136 17.0316L108.201 18.2743L108.092 18.5849C108 18.8225 107.891 19.0966 107.726 19.4255C107.616 19.6631 107.489 19.9189 107.324 20.2296L110.449 22.4956L107.415 23.3179L106.136 22.4042C105.387 23.592 104.473 24.3413 103.377 24.6337C103.011 24.6885 102.646 24.7433 102.28 24.7616ZM101.86 19.3342C101.422 19.8641 101.111 20.2844 100.983 20.5768C100.855 20.8326 100.818 21.0885 100.892 21.3078C100.983 21.6733 101.22 21.9474 101.604 22.1849C101.86 22.3311 102.134 22.4042 102.39 22.4042C102.5 22.4042 102.609 22.3859 102.701 22.3677C103.176 22.2398 103.669 21.7829 104.163 20.9788L101.86 19.3342ZM101.476 14.2174C101.385 14.2174 101.294 14.2357 101.184 14.2539C100.946 14.327 100.782 14.4367 100.672 14.6194C100.563 14.7839 100.544 14.9301 100.581 15.1128C100.654 15.3687 100.837 15.6062 101.129 15.8255L101.531 16.0996C101.677 15.9169 101.787 15.7524 101.878 15.6062C102.025 15.4052 102.079 15.2956 102.098 15.2225C102.171 15.058 102.171 14.8935 102.134 14.7108C102.079 14.5098 101.97 14.3636 101.805 14.2905C101.714 14.2357 101.604 14.2174 101.476 14.2174Z" fill="white"/>
<path d="M115.42 21.9106L114.159 9.75831L121.213 9.02734L121.469 11.4213L116.9 11.8964L117.101 13.8517L121.45 13.3583L121.688 15.7522L117.339 16.2456L117.649 19.2792L122.108 18.7858L122.346 21.1797L115.42 21.9106Z" fill="white"/>
<path d="M65.6409 42.871L58.4957 32.9664L64.2521 28.8181L65.6592 30.7735L61.9313 33.4598L63.0826 35.0679L66.6095 32.473L68.0166 34.4283L64.4897 37.0232L66.2805 39.4902L69.8988 36.8405L71.3059 38.7958L65.6409 42.871Z" fill="white"/>
<path d="M82.1242 32.3455L76.9343 21.2713L83.3486 18.2561L84.3719 20.4307L80.2237 22.3861L81.0643 24.1769L85.0115 22.2947L86.0349 24.4693L82.0876 26.3516L83.3851 29.111L87.442 27.1739L88.4653 29.3485L82.1242 32.3455Z" fill="white"/>
<path d="M128.541 21.2166C127.499 21.2531 126.585 20.9607 125.855 20.3577C125.124 19.7364 124.429 18.6582 124.338 17.3607L126.841 16.8856C126.841 17.5617 127.207 18.1648 127.298 18.2744C127.591 18.6582 128.011 18.8227 128.541 18.8044C129.016 18.7861 129.363 18.6216 129.619 18.3293C129.893 18.0369 130.003 17.6714 129.984 17.2145C129.966 17.0318 129.948 16.8673 129.893 16.7394C129.838 16.6115 129.765 16.4836 129.656 16.3739C129.546 16.246 129.4 16.1364 129.217 16.0267C129.016 15.9171 128.797 15.8074 128.523 15.6978L127.371 15.2957C125.617 14.6562 124.685 13.6145 124.612 12.1709C124.557 11.2023 124.904 10.3617 125.599 9.6673C126.293 8.99115 127.189 8.6074 128.248 8.55257H128.322C130.131 8.49775 131.556 9.55765 131.995 10.8186L129.966 11.8602C129.765 11.2023 129.217 10.9648 128.413 10.9648C127.993 10.9648 127.682 11.111 127.444 11.3302C127.225 11.5313 127.134 11.7688 127.134 12.0612C127.152 12.445 127.499 12.7556 128.194 12.9932L129.363 13.3952C130.368 13.7424 131.136 14.1993 131.629 14.7841C132.141 15.3688 132.433 16.0998 132.47 16.977C132.525 18.1282 132.177 19.1151 131.446 19.9191C130.715 20.7232 129.747 21.1618 128.614 21.2166H128.541Z" fill="white"/>
<path d="M54.914 52.849C54.2013 53.6165 53.3607 54.0551 52.4104 54.1465C51.4601 54.2378 50.1992 53.9455 49.2124 53.1048L50.6378 51.0033C51.1129 51.4967 51.8074 51.6429 51.9536 51.6612C52.4287 51.716 52.8307 51.5515 53.1962 51.1495C53.5069 50.8023 53.6348 50.4551 53.6165 50.0531C53.5982 49.651 53.4155 49.3038 53.0866 49.0114C52.9586 48.8835 52.8124 48.7921 52.6662 48.7373C52.5383 48.6825 52.3921 48.646 52.2277 48.646C52.0632 48.646 51.8805 48.6642 51.6794 48.719C51.4601 48.7739 51.2226 48.8652 50.9485 48.9932L49.8703 49.5048C48.1891 50.2906 46.782 50.1993 45.7221 49.249C45.0094 48.5911 44.6439 47.7688 44.6622 46.782C44.6622 45.8135 45.0459 44.918 45.7586 44.114L45.8134 44.0591C47.0561 42.7251 48.8104 42.4693 50.0165 43.0723L49.3038 45.2287C48.6825 44.918 48.1342 45.119 47.5677 45.7038C47.2754 46.0145 47.1474 46.3251 47.1474 46.6358C47.1292 46.9465 47.2388 47.1657 47.4581 47.3668C47.7505 47.6226 48.2256 47.6043 48.8652 47.2937L49.9799 46.7637C50.9302 46.3069 51.8074 46.0876 52.5566 46.1424C53.3241 46.1972 54.0551 46.5079 54.6947 47.0926C55.5536 47.8602 56.0104 48.8104 56.047 49.8886C56.0835 50.985 55.718 51.9536 54.9505 52.8125L54.914 52.849Z" fill="white"/>
<path d="M175.213 31.8338C174.262 31.3952 173.568 30.7373 173.184 29.8784C172.8 29.0013 172.654 27.7221 173.148 26.516L175.596 27.2104C175.286 27.8134 175.359 28.5261 175.395 28.6723C175.505 29.1475 175.779 29.4764 176.273 29.6957C176.711 29.8784 177.077 29.8967 177.46 29.7505C177.826 29.6043 178.1 29.3302 178.283 28.9099C178.356 28.7454 178.392 28.581 178.411 28.4348C178.429 28.2886 178.411 28.1424 178.356 27.9962C178.301 27.8317 178.228 27.6672 178.118 27.5028C177.99 27.32 177.826 27.119 177.643 26.8997L176.821 26.0408C175.542 24.6885 175.176 23.3363 175.743 22.0205C176.126 21.1251 176.802 20.522 177.734 20.2114C178.648 19.9007 179.617 19.9738 180.604 20.3941L180.677 20.4307C182.321 21.1799 183.144 22.7698 182.961 24.0855L180.677 24.1038C180.768 23.4094 180.402 22.9525 179.672 22.6053C179.288 22.4226 178.959 22.4043 178.648 22.4956C178.356 22.587 178.173 22.7515 178.045 23.0073C177.899 23.3545 178.063 23.7931 178.575 24.3231L179.434 25.2002C180.183 25.9677 180.658 26.717 180.859 27.448C181.06 28.1972 180.987 28.983 180.64 29.787C180.183 30.8469 179.434 31.5779 178.411 31.9799C177.387 32.3637 176.346 32.3454 175.286 31.8886L175.213 31.8338Z" fill="white"/>
<path d="M166.259 27.9227C165.272 27.5755 164.523 26.9907 164.066 26.1683C163.591 25.3277 163.335 24.0668 163.718 22.8242L166.222 23.281C165.966 23.9206 166.112 24.615 166.149 24.743C166.295 25.1998 166.606 25.5105 167.118 25.6749C167.574 25.8211 167.94 25.8029 168.305 25.6201C168.671 25.4374 168.908 25.145 169.055 24.7064C169.109 24.5419 169.146 24.3775 169.128 24.213C169.128 24.0668 169.091 23.9206 169.036 23.7744C168.981 23.6282 168.872 23.4638 168.744 23.2993C168.598 23.1166 168.415 22.9338 168.214 22.7511L167.319 21.9836C165.911 20.7592 165.418 19.4435 165.875 18.0729C166.186 17.1409 166.789 16.483 167.702 16.0993C168.598 15.7155 169.566 15.679 170.59 16.0079L170.663 16.0262C172.381 16.611 173.331 18.1277 173.276 19.4617L171.01 19.6993C171.028 19.0049 170.626 18.5846 169.877 18.3105C169.475 18.1643 169.146 18.1825 168.854 18.3105C168.579 18.4201 168.397 18.6028 168.305 18.877C168.177 19.2424 168.397 19.6627 168.945 20.1379L169.877 20.9419C170.699 21.6364 171.229 22.3308 171.503 23.0435C171.777 23.7744 171.777 24.5602 171.503 25.4008C171.138 26.4973 170.462 27.3013 169.493 27.7765C168.525 28.2516 167.465 28.3247 166.368 27.9775L166.259 27.9227Z" fill="white"/>
<path d="M137.184 21.2898L134.681 21.0888L135.649 8.8999L137.988 9.08264C138.993 9.15574 139.724 9.28366 140.236 9.4664C140.784 9.66742 141.259 9.97808 141.643 10.4349C142.319 11.2024 142.612 12.1344 142.52 13.2126C142.429 14.3639 141.954 15.2776 141.113 15.8989C140.291 16.502 139.231 16.7761 137.952 16.6664L137.55 16.6299L137.184 21.2898ZM137.751 14.2908L138.007 14.3091C138.134 14.3273 138.281 14.3273 138.39 14.3273C139.816 14.3273 140.053 13.6329 140.09 13.0299C140.145 12.4451 139.98 11.641 138.134 11.4948L137.952 11.4766L137.751 14.2908Z" fill="white"/>
<path d="M152.242 23.4639L149.19 22.8609L147.016 17.671L146.248 22.3675L143.781 21.9289L145.865 9.88623L148.24 10.3065C149.83 10.5806 150.926 11.0923 151.548 11.8416C152.242 12.6822 152.498 13.6873 152.297 14.8203C152.151 15.6974 151.749 16.4284 151.127 16.9949C150.652 17.4152 150.086 17.6893 149.465 17.8172L152.242 23.4639ZM147.436 15.4781L147.601 15.4964C147.875 15.5512 148.131 15.5695 148.35 15.5695C149.264 15.5695 149.739 15.204 149.885 14.3817C149.958 13.9248 149.885 13.5776 149.629 13.3218C149.355 13.0294 148.843 12.8101 148.149 12.7005L147.929 12.6639L147.436 15.4781Z" fill="white"/>
<path d="M42.6884 67.5234L41.0437 70.1549L35.4153 70.3376L39.527 72.7133L38.2478 74.8696L27.7401 68.6381L28.9645 66.5549C29.7868 65.166 30.6457 64.3254 31.5777 63.9965C32.601 63.6493 33.6427 63.7589 34.6295 64.3437C35.397 64.8005 35.9452 65.4219 36.2376 66.2077C36.4752 66.8107 36.53 67.432 36.4204 68.0533L42.6884 67.5234ZM33.5148 69.1681L33.5879 69.0219C33.734 68.7843 33.8437 68.5468 33.9168 68.3457C34.2457 67.4868 34.063 66.9203 33.3503 66.5C32.9483 66.2625 32.601 66.2259 32.2538 66.3721C31.8884 66.5366 31.5046 66.9203 31.1391 67.5234L31.066 67.7244L33.5148 69.1681Z" fill="white"/>
<path d="M80.8448 33.0212L78.1402 34.538L73.0965 32.0162L75.5636 36.073L73.4072 37.3522L67.1392 26.8628L69.2041 25.6202C70.593 24.7796 71.7443 24.4689 72.7128 24.6151C73.791 24.7979 74.6316 25.4009 75.2163 26.3877C75.6732 27.1552 75.8559 27.9593 75.7463 28.7999C75.6549 29.4395 75.4174 30.006 75.0153 30.5177L80.8448 33.0212ZM72.0001 30.0791L72.128 30.006C72.3656 29.8598 72.5666 29.7136 72.7493 29.5674C73.4438 28.9644 73.5717 28.3796 73.1331 27.6669C72.8955 27.2649 72.6031 27.0639 72.2377 27.0273C71.8356 26.9908 71.3239 27.1552 70.7209 27.5207L70.5199 27.6304L72.0001 30.0791Z" fill="white"/>
<path d="M216.147 67.3217L214.356 64.7816L216.348 59.5004L212.565 62.3877L211.067 60.3775L220.862 53.0679L222.305 55.0049C223.274 56.3024 223.713 57.4171 223.658 58.4039C223.585 59.5004 223.091 60.3958 222.159 61.0902C221.447 61.6202 220.661 61.8943 219.82 61.8577C219.181 61.8395 218.578 61.6567 218.048 61.3095L216.147 67.3217ZM218.139 58.2212L218.23 58.3491C218.395 58.5684 218.559 58.7694 218.724 58.9156C219.4 59.5552 219.985 59.61 220.643 59.1166C221.008 58.8425 221.191 58.5318 221.191 58.1664C221.191 57.7643 220.971 57.2709 220.551 56.7044L220.423 56.5217L218.139 58.2212Z" fill="white"/>
<path d="M160.557 25.6569L153.704 23.793L156.92 12.0061L163.773 13.8701L163.133 16.1909L158.711 14.9848L158.199 16.8853L162.494 18.0549L161.854 20.3757L157.56 19.2061L156.756 22.1483L161.178 23.3544L160.557 25.6569Z" fill="white"/>
<path d="M188.827 38.5948C187.621 38.5948 186.452 38.2476 185.373 37.5532C184.058 36.7126 183.144 35.4699 182.687 33.8984C182.175 32.144 182.45 30.4263 183.491 28.7816C184.423 27.3379 185.757 26.4242 187.475 26.077C189.175 25.7115 190.801 26.0222 192.263 26.9542C193.725 27.8861 194.639 29.2202 195.022 30.9379C195.406 32.6557 195.114 34.2638 194.182 35.7258C193.231 37.1877 191.897 38.1197 190.18 38.4669C189.741 38.5583 189.284 38.5948 188.827 38.5948ZM188.919 28.343C188.645 28.343 188.352 28.3796 188.042 28.4344C187 28.6537 186.214 29.2202 185.611 30.1521C184.99 31.139 184.807 32.1258 185.045 33.1674C185.3 34.2273 185.83 34.9948 186.689 35.543C187.347 35.9633 188.042 36.1826 188.772 36.1826C189.047 36.1826 189.339 36.1461 189.631 36.0913C190.691 35.8537 191.495 35.2872 192.08 34.3552C192.683 33.405 192.866 32.4364 192.647 31.4131C192.427 30.3714 191.879 29.5856 190.947 28.9826C190.308 28.544 189.613 28.343 188.919 28.343Z" fill="white"/>
<path d="M201.235 48.3168C200.724 48.3168 200.248 48.2254 199.81 48.0427C199.28 47.7868 198.713 47.4031 198.092 46.8731L195.808 44.9178L203.739 35.6162L205.585 37.2061C208.033 39.3441 207.924 41.6101 207.028 42.6518C206.151 43.6751 205.018 43.8213 204.342 43.5472C204.671 44.0589 204.817 44.8081 204.762 45.3198C204.689 46.0142 204.433 46.4528 203.94 47.0376C203.3 47.8051 202.46 48.2071 201.473 48.2802C201.4 48.3168 201.308 48.3168 201.235 48.3168ZM199.262 44.735L199.773 45.1736C200.285 45.6122 200.742 45.8498 201.126 45.8498C201.528 45.8498 201.838 45.7036 202.076 45.4112C202.332 45.1188 202.423 44.7899 202.368 44.4061C202.332 44.132 202.131 43.6934 201.345 43.0173L200.979 42.7066L199.262 44.735ZM202.441 40.9888L202.551 41.0802C203.337 41.7563 204.305 41.9208 204.817 41.3178C205.347 40.7147 205.109 39.9106 204.251 39.1797L204.086 39.0335L202.441 40.9888Z" fill="white"/>
<path d="M210.336 59.2084L208.508 57.1252L209.678 54.4206L206.681 51.2043L203.922 52.118L201.966 50.1627L215.672 45.9231L210.336 59.2084ZM208.947 50.4185L210.647 52.246L211.981 49.3221L208.947 50.4185Z" fill="white"/>
<path d="M218.65 71.7811C218.084 70.9039 217.865 69.972 217.992 69.04C218.139 68.0897 218.723 66.9384 219.783 66.1892L221.465 68.0897C220.88 68.4369 220.551 69.0765 220.514 69.2044C220.35 69.6613 220.405 70.0816 220.697 70.5385C220.953 70.9405 221.264 71.1415 221.666 71.2146C222.068 71.2877 222.433 71.1963 222.817 70.9588C222.963 70.8674 223.091 70.7395 223.182 70.6298C223.274 70.5202 223.329 70.3923 223.383 70.2278C223.42 70.0633 223.456 69.8806 223.456 69.6796C223.456 69.4603 223.42 69.2044 223.365 68.9121L223.128 67.7425C222.78 65.9151 223.201 64.5811 224.388 63.777C225.193 63.2288 226.088 63.0826 227.038 63.3384C227.97 63.576 228.756 64.1608 229.359 65.0562L229.396 65.111C230.382 66.6278 230.2 68.4187 229.341 69.4237L227.404 68.2176C227.861 67.6877 227.787 67.1029 227.367 66.4085C227.148 66.043 226.874 65.8603 226.563 65.7689C226.271 65.6775 226.015 65.7141 225.777 65.8785C225.467 66.0978 225.375 66.5547 225.521 67.2674L225.777 68.4735C225.997 69.5151 225.997 70.4105 225.759 71.1232C225.521 71.8725 225.028 72.4938 224.315 72.9689C223.347 73.6085 222.323 73.8278 221.264 73.6085C220.204 73.3892 219.327 72.7862 218.687 71.8359L218.65 71.7811Z" fill="white"/>
<path d="M37.2608 52.7026C38.0481 52.7026 38.6862 52.0644 38.6862 51.2772C38.6862 50.49 38.0481 49.8518 37.2608 49.8518C36.4736 49.8518 35.8354 50.49 35.8354 51.2772C35.8354 52.0644 36.4736 52.7026 37.2608 52.7026Z" fill="white"/>
<path d="M34.0263 57.0883C34.8136 57.0883 35.4517 56.4502 35.4517 55.6629C35.4517 54.8757 34.8136 54.2375 34.0263 54.2375C33.2391 54.2375 32.601 54.8757 32.601 55.6629C32.601 56.4502 33.2391 57.0883 34.0263 57.0883Z" fill="white"/>
</svg>
